<svg width="45" height="47" viewBox="0 0 45 47" fill="none" xmlns="http://www.w3.org/2000/svg">
<rect y="0.652344" width="44.8712" height="45.8259" rx="12.4112" fill="black"/>
<path d="M26.5571 32.0679C27.5333 32.0679 28.3568 32.4626 29.0277 33.252C29.6985 34.0414 30.0344 34.9993 30.0354 36.1259C30.0364 37.2525 29.698 38.2104 29.0205 38.9998C28.3429 39.7892 27.5218 40.1839 26.5571 40.1839C25.7217 40.1839 24.9896 39.8824 24.3608 39.2795C23.732 38.6766 23.333 37.9045 23.1636 36.9633H17.3928C16.7545 36.9633 16.2085 36.6981 15.7549 36.1678C15.3012 35.6374 15.074 35.0016 15.073 34.2602V19.5725C15.073 18.8289 15.3003 18.1925 15.7549 17.6632C16.2094 17.134 16.7549 16.8683 17.3914 16.866H25.1216V10.167H24.2388C23.8541 10.167 23.5186 10 23.2325 9.6662C22.9454 9.33236 22.8018 8.94103 22.8018 8.49219H26.5571V32.0679ZM18.6618 35.2885V18.5408H17.3914C17.1339 18.5408 16.9224 18.6374 16.7569 18.8305C16.5913 19.0237 16.5085 19.271 16.5085 19.5725V34.2585C16.5085 34.5589 16.5913 34.8056 16.7569 34.9988C16.9224 35.1919 17.1344 35.2885 17.3928 35.2885H18.6618ZM20.0973 18.5408V35.2885H23.1923C23.2507 34.6342 23.4564 34.0626 23.8096 33.5735C24.1627 33.0845 24.6 32.7328 25.1216 32.5184V18.5408H20.0973ZM26.56 38.7034C27.1744 38.7034 27.696 38.4522 28.1247 37.9497C28.5525 37.4473 28.7664 36.8382 28.7664 36.1225C28.7664 35.4069 28.5511 34.7984 28.1204 34.297C27.6898 33.7991 27.1677 33.5501 26.5543 33.5501C25.9408 33.5501 25.4193 33.8008 24.9896 34.3021C24.5599 34.8034 24.346 35.4124 24.3479 36.1292C24.3498 36.846 24.5651 37.4545 24.9939 37.9547C25.4245 38.4538 25.9466 38.7034 26.56 38.7034Z" fill="white"/>
</svg>
