<svg width="45" height="46" viewBox="0 0 45 46" fill="none" xmlns="http://www.w3.org/2000/svg">
<rect width="44.8712" height="45.8259" rx="12.4112" fill="black"/>
<path d="M21.9377 31.2131C22.3018 31.2131 22.6088 31.088 22.8588 30.838C23.1089 30.588 23.2339 30.281 23.2339 29.9169C23.2339 29.5528 23.1078 29.2458 22.8556 28.9958C22.6055 28.7458 22.2985 28.6207 21.9344 28.6207C21.5704 28.6207 21.2633 28.7463 21.0133 28.9974C20.7633 29.2485 20.6388 29.5556 20.6399 29.9185C20.6399 30.2826 20.7649 30.5896 21.015 30.8397C21.2672 31.0897 21.5748 31.2147 21.9377 31.2147M21.0873 25.7669H22.6763C22.7179 25.0519 22.8523 24.4708 23.0793 24.0234C23.3062 23.577 23.7728 23.0068 24.479 22.3127C25.2137 21.5791 25.7598 20.9217 26.1173 20.3405C26.4748 19.7593 26.6541 19.0871 26.6552 18.3239C26.6552 17.0277 26.2001 15.9948 25.29 15.225C24.3787 14.4552 23.3008 14.0703 22.0562 14.0703C20.8729 14.0703 19.8685 14.3916 19.0428 15.0342C18.217 15.6779 17.6123 16.417 17.2285 17.2514L18.7417 17.8781C19.0049 17.2794 19.3816 16.7503 19.8718 16.2908C20.3619 15.8303 21.0692 15.6 21.9936 15.6C23.0595 15.6 23.8381 15.8928 24.3294 16.4784C24.8217 17.0639 25.0679 17.7076 25.0679 18.4094C25.0679 18.9797 24.9138 19.4885 24.6057 19.9359C24.2986 20.3844 23.8984 20.8351 23.4049 21.2879C22.4509 22.1674 21.8259 22.9131 21.5298 23.525C21.2337 24.1368 21.0862 24.8842 21.0873 25.7669ZM21.8966 37.4142C19.8504 37.4142 17.9259 37.026 16.1231 36.2496C14.3215 35.4722 12.7539 34.4172 11.4205 33.0849C10.087 31.7526 9.03157 30.1867 8.2541 28.3872C7.47663 26.5877 7.08789 24.6638 7.08789 22.6153C7.08789 20.5669 7.47663 18.6425 8.2541 16.8419C9.03047 15.0402 10.0837 13.4726 11.4139 12.1392C12.744 10.8058 14.3105 9.75032 16.1133 8.97285C17.916 8.19538 19.8405 7.80664 21.8867 7.80664C23.9329 7.80664 25.8574 8.19538 27.6602 8.97285C29.4619 9.74922 31.0294 10.803 32.3629 12.1343C33.6963 13.4655 34.7518 15.032 35.5292 16.8337C36.3067 18.6353 36.6954 20.5593 36.6954 22.6055C36.6954 24.6517 36.3072 26.5762 35.5309 28.379C34.7545 30.1817 33.6996 31.7493 32.3662 33.0816C31.0327 34.414 29.4668 35.4694 27.6684 36.248C25.87 37.0265 23.9461 37.4153 21.8966 37.4142ZM21.8917 35.7693C25.5652 35.7693 28.6767 34.4946 31.2263 31.945C33.7758 29.3955 35.0506 26.2839 35.0506 22.6104C35.0506 18.9369 33.7758 15.8254 31.2263 13.2758C28.6767 10.7263 25.5652 9.4515 21.8917 9.4515C18.2181 9.4515 15.1066 10.7263 12.5571 13.2758C10.0075 15.8254 8.73275 18.9369 8.73275 22.6104C8.73275 26.2839 10.0075 29.3955 12.5571 31.945C15.1066 34.4946 18.2181 35.7693 21.8917 35.7693Z" fill="white"/>
</svg>
