<svg width="45" height="46" viewBox="0 0 45 46" fill="none" xmlns="http://www.w3.org/2000/svg">
<rect y="0.128906" width="44.8712" height="45.8259" rx="12.4112" fill="black"/>
<path d="M17.611 8.96434C19.0903 8.76049 20.3342 9.66559 20.9227 10.842L22.3705 13.7367C23.1736 15.3431 22.7121 17.2279 21.4948 18.4136C20.7756 19.1134 20.0528 19.913 19.6336 20.6186C19.6058 20.6688 19.5971 20.7275 19.6092 20.7837C19.9968 22.8838 21.4201 24.9589 22.6899 26.4468C22.7539 26.5175 22.8372 26.5679 22.9296 26.5917C23.0219 26.6156 23.1193 26.6119 23.2095 26.581L26.0626 25.6896C26.8312 25.4493 27.6565 25.4616 28.4175 25.7246C29.1786 25.9876 29.8354 26.4874 30.2916 27.1509L32.3566 30.1547C32.9165 30.9694 33.2 32.0747 32.7708 33.1377C32.3875 34.0873 31.6461 35.4568 30.2974 36.3676C28.8978 37.3122 26.9806 37.6711 24.4721 36.8112C21.6692 35.8494 19.0214 33.4378 16.8258 30.3535C14.6172 27.25 12.7991 23.3733 11.6967 19.3309C10.6545 15.5146 11.2832 12.945 12.7633 11.2906C14.1909 9.6943 16.2365 9.15311 17.611 8.96434ZM19.3171 11.6444C18.9891 10.9891 18.4041 10.6654 17.855 10.7408C16.6341 10.9087 15.1053 11.3631 14.1012 12.4864C13.1494 13.5508 12.4905 15.4256 13.4265 18.8586C14.478 22.7116 16.2092 26.3937 18.2871 29.3128C20.378 32.2506 22.7537 34.3249 25.0534 35.1137C27.1026 35.8164 28.4197 35.469 29.2925 34.8804C30.2156 34.2567 30.7833 33.2655 31.1063 32.4659C31.2542 32.0999 31.1903 31.6261 30.8773 31.1711L28.8123 28.168C28.5734 27.8204 28.2294 27.5585 27.8308 27.4207C27.4322 27.2829 26.9999 27.2764 26.5973 27.4021L23.7443 28.2936C22.8916 28.5599 21.9312 28.3223 21.3247 27.6117C20.0033 26.0635 18.3194 23.6892 17.8436 21.1088C17.7527 20.6252 17.8404 20.1251 18.0905 19.7013C18.6345 18.7869 19.4958 17.8545 20.2416 17.1281C20.9701 16.419 21.1768 15.3639 20.7648 14.5392L19.3171 11.6444Z" fill="white"/>
</svg>
