<svg width="45" height="46" viewBox="0 0 45 46" fill="none" xmlns="http://www.w3.org/2000/svg">
<rect width="44.8712" height="45.8259" rx="12.4112" fill="black"/>
<path d="M22.2249 10.3059C19.56 10.3059 17.0043 11.3645 15.12 13.2488C13.2356 15.1332 12.177 17.6889 12.177 20.3538C12.177 24.4619 14.7349 28.4251 17.5426 31.4955C18.9782 33.0596 20.5446 34.4983 22.2249 35.796C22.4756 35.6036 22.7699 35.3692 23.1077 35.0926C24.4567 33.9849 25.7263 32.7838 26.9072 31.4984C29.7149 28.4251 32.2728 24.4634 32.2728 20.3538C32.2728 17.6889 31.2142 15.1332 29.3299 13.2488C27.4455 11.3645 24.8898 10.3059 22.2249 10.3059ZM22.2249 39.3214L21.411 38.7616L21.4067 38.7587L21.3981 38.7515L21.3694 38.7314L21.2617 38.6553L20.8742 38.3726C18.9103 36.8966 17.0859 35.2438 15.4239 33.4347C12.4899 30.2223 9.30615 25.573 9.30615 20.3523C9.30615 16.9261 10.6672 13.6401 13.09 11.2174C15.5127 8.79467 18.7986 7.43359 22.2249 7.43359C25.6512 7.43359 28.9371 8.79467 31.3598 11.2174C33.7826 13.6401 35.1437 16.9261 35.1437 20.3523C35.1437 25.573 31.9599 30.2237 29.0259 33.4319C27.3643 35.2408 25.5404 36.8937 23.5771 38.3697C23.4135 38.4919 23.2484 38.612 23.0818 38.73L23.0517 38.7501L23.0431 38.7573L23.0402 38.7587L22.2249 39.3214ZM22.2249 17.4829C21.4635 17.4829 20.7333 17.7854 20.1949 18.3238C19.6565 18.8622 19.3541 19.5924 19.3541 20.3538C19.3541 21.1152 19.6565 21.8454 20.1949 22.3838C20.7333 22.9221 21.4635 23.2246 22.2249 23.2246C22.9863 23.2246 23.7165 22.9221 24.2549 22.3838C24.7933 21.8454 25.0957 21.1152 25.0957 20.3538C25.0957 19.5924 24.7933 18.8622 24.2549 18.3238C23.7165 17.7854 22.9863 17.4829 22.2249 17.4829ZM16.4832 20.3538C16.4832 18.831 17.0882 17.3706 18.1649 16.2938C19.2417 15.217 20.7021 14.6121 22.2249 14.6121C23.7477 14.6121 25.2081 15.217 26.2849 16.2938C27.3616 17.3706 27.9666 18.831 27.9666 20.3538C27.9666 21.8766 27.3616 23.337 26.2849 24.4137C25.2081 25.4905 23.7477 26.0954 22.2249 26.0954C20.7021 26.0954 19.2417 25.4905 18.1649 24.4137C17.0882 23.337 16.4832 21.8766 16.4832 20.3538Z" fill="white"/>
</svg>
