<svg width="45" height="47" viewBox="0 0 45 47" fill="none" xmlns="http://www.w3.org/2000/svg">
<rect y="0.826172" width="44.8712" height="45.8259" rx="12.4112" fill="black"/>
<path d="M25.2113 25.4613C24.368 25.4613 23.6587 25.1679 23.0835 24.5812C22.5083 23.9945 22.2207 23.271 22.2207 22.4108C22.2207 21.5506 22.5083 20.8271 23.0835 20.2404C23.6587 19.6537 24.368 19.3603 25.2113 19.3603C26.0547 19.3603 26.764 19.6537 27.3392 20.2404C27.9144 20.8271 28.202 21.5506 28.202 22.4108C28.202 23.271 27.9144 23.9945 27.3392 24.5812C26.764 25.1679 26.0547 25.4613 25.2113 25.4613ZM13.5358 30.3313V14.4902H36.8869V30.3298L13.5358 30.3313ZM17.4476 28.8061H32.9751C32.9751 28.1228 33.2119 27.5412 33.6854 27.0612C34.1579 26.5813 34.7261 26.3413 35.3901 26.3413V18.4803C34.7221 18.4803 34.1529 18.2393 33.6824 17.7573C33.2109 17.2743 32.9751 16.6942 32.9751 16.017H17.4476C17.4476 16.6993 17.2108 17.2804 16.7373 17.7603C16.2648 18.2403 15.6965 18.4803 15.0326 18.4803V26.3413C15.7005 26.3413 16.2703 26.5828 16.7418 27.0658C17.2123 27.5478 17.4476 28.1289 17.4476 28.8061ZM9.0498 34.9055V19.0095H10.5451V33.3833H32.4577V34.9086L9.0498 34.9055Z" fill="white"/>
</svg>
