<svg width="45" height="47" viewBox="0 0 45 47" fill="none" xmlns="http://www.w3.org/2000/svg">
<rect y="0.304688" width="44.8712" height="45.8259" rx="12.4112" fill="black"/>
<path d="M37.5445 31.9435C36.6599 30.9895 35.7753 30.019 34.8754 29.065C34.7534 28.9334 34.6313 28.7853 34.4941 28.6538C34.4245 28.5772 34.3414 28.5163 34.2498 28.4748C34.1581 28.4332 34.0597 28.4118 33.9602 28.4118C33.8608 28.4118 33.7624 28.4332 33.6707 28.4748C33.5791 28.5163 33.496 28.5772 33.4264 28.6538C33.3549 28.7302 33.2982 28.8212 33.2595 28.9214C33.2208 29.0216 33.2008 29.1291 33.2008 29.2377C33.2008 29.3462 33.2208 29.4537 33.2595 29.554C33.2982 29.6542 33.3549 29.7451 33.4264 29.8216L35.1652 31.6968H18.4638C17.5658 31.6968 16.7045 31.312 16.0695 30.6272C15.4345 29.9424 15.0778 29.0136 15.0778 28.0452C15.0778 27.0767 15.4345 26.1479 16.0695 25.4631C16.7045 24.7783 17.5658 24.3936 18.4638 24.3936H23.0395C23.6835 24.3936 24.3211 24.2568 24.9161 23.991C25.511 23.7253 26.0516 23.3357 26.5069 22.8447C26.9623 22.3536 27.3235 21.7706 27.5699 21.129C27.8163 20.4874 27.9432 19.7998 27.9432 19.1053C27.9432 18.4109 27.8163 17.7232 27.5699 17.0816C27.3235 16.44 26.9623 15.857 26.5069 15.366C26.0516 14.8749 25.511 14.4854 24.9161 14.2196C24.3211 13.9539 23.6835 13.8171 23.0395 13.8171H15.0015C14.8125 12.8186 14.2865 11.9314 13.5254 11.3274C12.7643 10.7234 11.8224 10.4458 10.8822 10.5482C9.94208 10.6506 9.07067 11.1258 8.43697 11.8818C7.80326 12.6377 7.45239 13.6205 7.45239 14.6395C7.45239 15.6586 7.80326 16.6413 8.43697 17.3973C9.07067 18.1532 9.94208 18.6284 10.8822 18.7308C11.8224 18.8333 12.7643 18.5556 13.5254 17.9516C14.2865 17.3476 14.8125 16.4604 15.0015 15.4619H23.0395C23.9355 15.4619 24.7949 15.8458 25.4284 16.5291C26.062 17.2123 26.4179 18.139 26.4179 19.1053C26.4179 20.0716 26.062 20.9983 25.4284 21.6816C24.7949 22.3648 23.9355 22.7487 23.0395 22.7487H18.4638C17.8189 22.7487 17.1802 22.8857 16.5844 23.1519C15.9885 23.418 15.4471 23.8082 14.991 24.3C14.535 24.7918 14.1732 25.3757 13.9264 26.0183C13.6796 26.6609 13.5526 27.3496 13.5526 28.0452C13.5526 28.7407 13.6796 29.4294 13.9264 30.072C14.1732 30.7146 14.535 31.2985 14.991 31.7903C15.4471 32.2821 15.9885 32.6723 16.5844 32.9384C17.1802 33.2046 17.8189 33.3416 18.4638 33.3416H35.1804L33.8077 34.822C33.6704 34.9536 33.5484 35.1016 33.4264 35.2332C33.3549 35.3097 33.2982 35.4006 33.2595 35.5008C33.2208 35.6011 33.2008 35.7086 33.2008 35.8171C33.2008 35.9257 33.2208 36.0332 33.2595 36.1334C33.2982 36.2336 33.3549 36.3246 33.4264 36.4011C33.5708 36.548 33.7618 36.6298 33.9602 36.6298C34.1587 36.6298 34.3497 36.548 34.4941 36.4011L37.1632 33.5225L37.5445 33.1113C37.616 33.0349 37.6728 32.9439 37.7115 32.8437C37.7502 32.7435 37.7701 32.636 37.7701 32.5274C37.7701 32.4188 37.7502 32.3113 37.7115 32.2111C37.6728 32.1109 37.616 32.0199 37.5445 31.9435ZM11.2647 17.1068C10.8122 17.1068 10.3699 16.9621 9.99364 16.691C9.61741 16.4199 9.32417 16.0345 9.151 15.5837C8.97784 15.1329 8.93253 14.6368 9.02081 14.1582C9.10909 13.6796 9.32699 13.2399 9.64695 12.8949C9.96691 12.5498 10.3746 12.3148 10.8184 12.2196C11.2622 12.1244 11.7222 12.1733 12.1402 12.36C12.5583 12.5468 12.9156 12.863 13.167 13.2688C13.4184 13.6745 13.5526 14.1515 13.5526 14.6395C13.5526 15.2939 13.3115 15.9214 12.8825 16.3842C12.4534 16.8469 11.8715 17.1068 11.2647 17.1068Z" fill="white"/>
</svg>
