<svg width="45" height="46" viewBox="0 0 45 46" fill="none" xmlns="http://www.w3.org/2000/svg">
<rect width="44.8712" height="45.8259" rx="12.4112" fill="black"/>
<g clip-path="url(#clip0_1227_801)">
<path d="M20.8941 8.34773C21.4842 8.12253 22.1289 8.09317 22.7363 8.26384L22.9935 8.34773L33.4609 12.3515C33.9916 12.5545 34.4548 12.9071 34.7966 13.3684C35.1384 13.8296 35.3447 14.3804 35.3913 14.9566L35.4018 15.2082V23.3881C35.4017 25.8596 34.7475 28.2853 33.5081 30.409C32.2687 32.5328 30.4902 34.2759 28.3603 35.4542L27.9625 35.6663L22.9472 38.2241C22.671 38.3647 22.3694 38.4457 22.0612 38.462C21.7529 38.4782 21.4447 38.4294 21.1558 38.3186L20.9404 38.2241L15.9251 35.6663C13.7578 34.5609 11.9233 32.8792 10.6152 30.7986C9.30712 28.7181 8.57404 26.3159 8.49332 23.8457L8.48584 23.3881V15.2082C8.48585 14.6304 8.64678 14.0644 8.94989 13.5762C9.25301 13.088 9.68584 12.6977 10.198 12.4506L10.4268 12.3515L20.8941 8.34773ZM21.9438 11.2045L11.4765 15.2082V23.3881C11.4765 25.3023 11.9811 27.1812 12.9374 28.8283C13.8936 30.4753 15.2664 31.8298 16.912 32.75L17.2634 32.9376L21.9438 35.3246L26.6242 32.9376C28.3031 32.0816 29.7254 30.7808 30.7421 29.1716C31.7589 27.5624 32.3328 25.7039 32.4037 23.7908L32.4111 23.3881V15.2082L21.9438 11.2045ZM27.0773 18.1611C27.3464 17.8876 27.7075 17.7287 28.0872 17.7169C28.4669 17.7051 28.8369 17.8411 29.1218 18.0974C29.4068 18.3537 29.5854 18.711 29.6214 19.0968C29.6575 19.4826 29.5482 19.8679 29.3158 20.1744L29.1917 20.3178L21.3651 28.3024C21.08 28.5932 20.7002 28.767 20.2977 28.7909C19.8952 28.8148 19.4982 28.6871 19.1819 28.4321L19.0384 28.3024L15.4436 24.6357C15.1726 24.3619 15.0144 23.9927 15.0015 23.6038C14.9885 23.2149 15.1218 22.8357 15.374 22.5437C15.6262 22.2518 15.9783 22.0692 16.3582 22.0334C16.7381 21.9975 17.117 22.1111 17.4174 22.3509L17.558 22.4775L20.2018 25.1741L27.0773 18.1611Z" fill="white"/>
</g>
<defs>
<clipPath id="clip0_1227_801">
<rect width="35.8879" height="36.6057" fill="white" transform="translate(4 5)"/>
</clipPath>
</defs>
</svg>
