<svg width="19" height="19" viewBox="0 0 19 19" fill="none" xmlns="http://www.w3.org/2000/svg">
<g id="building 1">
<g id="Group">
<g id="Group_2">
<g id="Group_3">
<path id="Vector" d="M0.954876 17.9768H2.78843V7.85393C2.78843 7.68453 2.92526 7.54718 3.09403 7.54718H7.37233V0.491814C7.37233 0.322408 7.50916 0.185059 7.67792 0.185059H15.6233C15.7921 0.185059 15.9289 0.322408 15.9289 0.491814V17.9768H18.6793C18.848 17.9768 18.9849 18.1142 18.9849 18.2836C18.9849 18.453 18.848 18.5904 18.6793 18.5904H0.954876C0.786112 18.5904 0.649282 18.453 0.649282 18.2836C0.649282 18.1142 0.786112 17.9768 0.954876 17.9768ZM12.5674 17.9768H13.7898V15.2161C13.7898 15.0466 13.653 14.9093 13.4842 14.9093H12.873C12.7042 14.9093 12.5674 15.0466 12.5674 15.2161V17.9768ZM11.345 7.85393V17.9768H11.9562V15.2161C11.9562 14.7078 12.3667 14.2958 12.873 14.2958H13.4842C13.9905 14.2958 14.401 14.7078 14.401 15.2161V17.9768H15.3177V0.798569H7.98351V7.54718H11.0394C11.2082 7.54718 11.345 7.68453 11.345 7.85393ZM3.39962 17.9768H10.7339V8.16069H3.39962V17.9768Z" fill="#84829A"/>
<path id="Vector_2" d="M9.20557 4.48096H11.0391C11.2079 4.48096 11.3447 4.61831 11.3447 4.78771V6.62824C11.3447 6.79765 11.2079 6.935 11.0391 6.935H9.20557C9.03681 6.935 8.89998 6.79765 8.89998 6.62824V4.78771C8.89998 4.61831 9.03681 4.48096 9.20557 4.48096ZM9.51117 6.32149H10.7335V5.09447H9.51117V6.32149Z" fill="#84829A"/>
<path id="Vector_3" d="M9.20557 1.41211H11.0391C11.2079 1.41211 11.3447 1.54946 11.3447 1.71886V3.55939C11.3447 3.7288 11.2079 3.86615 11.0391 3.86615H9.20557C9.03681 3.86615 8.89998 3.7288 8.89998 3.55939V1.71886C8.89998 1.54946 9.03681 1.41211 9.20557 1.41211ZM9.51117 3.25264H10.7335V2.02562H9.51117V3.25264Z" fill="#84829A"/>
<path id="Vector_4" d="M12.2617 4.48096H14.0953C14.264 4.48096 14.4009 4.61831 14.4009 4.78771V6.62824C14.4009 6.79765 14.264 6.935 14.0953 6.935H12.2617C12.093 6.935 11.9561 6.79765 11.9561 6.62824V4.78771C11.9561 4.61831 12.093 4.48096 12.2617 4.48096ZM12.5673 6.32149H13.7897V5.09447H12.5673V6.32149Z" fill="#84829A"/>
<path id="Vector_5" d="M12.2617 1.41211H14.0953C14.264 1.41211 14.4009 1.54946 14.4009 1.71886V3.55939C14.4009 3.7288 14.264 3.86615 14.0953 3.86615H12.2617C12.093 3.86615 11.9561 3.7288 11.9561 3.55939V1.71886C11.9561 1.54946 12.093 1.41211 12.2617 1.41211ZM12.5673 3.25264H13.7897V2.02562H12.5673V3.25264Z" fill="#84829A"/>
<path id="Vector_6" d="M12.2617 7.54736H14.0953C14.264 7.54736 14.4009 7.68471 14.4009 7.85412V9.69465C14.4009 9.86405 14.264 10.0014 14.0953 10.0014H12.2617C12.093 10.0014 11.9561 9.86405 11.9561 9.69465V7.85412C11.9561 7.68471 12.093 7.54736 12.2617 7.54736ZM12.5673 9.38789H13.7897V8.16087H12.5673V9.38789Z" fill="#84829A"/>
<path id="Vector_7" d="M12.2617 10.6152H14.0953C14.264 10.6152 14.4009 10.7526 14.4009 10.922V12.7625C14.4009 12.9319 14.264 13.0693 14.0953 13.0693H12.2617C12.093 13.0693 11.9561 12.9319 11.9561 12.7625V10.922C11.9561 10.7526 12.093 10.6152 12.2617 10.6152ZM12.5673 12.4558H13.7897V11.2287H12.5673V12.4558Z" fill="#84829A"/>
<path id="Vector_8" d="M6.45564 14.2944H4.62208C4.45332 14.2944 4.31649 14.157 4.31649 13.9876V12.1471C4.31649 11.9777 4.45332 11.8403 4.62208 11.8403H6.45564C6.6244 11.8403 6.76123 11.9777 6.76123 12.1471V13.9876C6.76123 14.157 6.6244 14.2944 6.45564 14.2944ZM6.15004 12.4538H4.92767V13.6809H6.15004V12.4538Z" fill="#84829A"/>
<path id="Vector_9" d="M6.45564 11.228H4.62208C4.45332 11.228 4.31649 11.0906 4.31649 10.9212V9.08068C4.31649 8.91128 4.45332 8.77393 4.62208 8.77393H6.45564C6.6244 8.77393 6.76123 8.91128 6.76123 9.08068V10.9212C6.76123 11.0906 6.6244 11.228 6.45564 11.228ZM6.15004 9.38744H4.92767V10.6145H6.15004V9.38744Z" fill="#84829A"/>
<path id="Vector_10" d="M6.45564 17.3627H4.62208C4.45332 17.3627 4.31649 17.2254 4.31649 17.056V15.2154C4.31649 15.046 4.45332 14.9087 4.62208 14.9087H6.45564C6.6244 14.9087 6.76123 15.046 6.76123 15.2154V17.056C6.76123 17.2254 6.6244 17.3627 6.45564 17.3627ZM6.15004 15.5222H4.92767V16.7492H6.15004V15.5222Z" fill="#84829A"/>
<path id="Vector_11" d="M9.51155 14.2944H7.67799C7.50922 14.2944 7.37239 14.157 7.37239 13.9876V12.1471C7.37239 11.9777 7.50922 11.8403 7.67799 11.8403H9.51155C9.68031 11.8403 9.81714 11.9777 9.81714 12.1471V13.9876C9.81714 14.157 9.68031 14.2944 9.51155 14.2944ZM9.20595 12.4538H7.98358V13.6809H9.20595V12.4538Z" fill="#84829A"/>
<path id="Vector_12" d="M9.51155 11.228H7.67799C7.50922 11.228 7.37239 11.0906 7.37239 10.9212V9.08068C7.37239 8.91128 7.50922 8.77393 7.67799 8.77393H9.51155C9.68031 8.77393 9.81714 8.91128 9.81714 9.08068V10.9212C9.81714 11.0906 9.68031 11.228 9.51155 11.228ZM9.20595 9.38744H7.98358V10.6145H9.20595V9.38744Z" fill="#84829A"/>
<path id="Vector_13" d="M9.51155 17.3627H7.67799C7.50922 17.3627 7.37239 17.2254 7.37239 17.056V15.2154C7.37239 15.046 7.50922 14.9087 7.67799 14.9087H9.51155C9.68031 14.9087 9.81714 15.046 9.81714 15.2154V17.056C9.81714 17.2254 9.68031 17.3627 9.51155 17.3627ZM9.20595 15.5222H7.98358V16.7492H9.20595V15.5222Z" fill="#84829A"/>
</g>
</g>
</g>
</g>
</svg>
