<svg width="63" height="64" viewBox="0 0 63 64" fill="none" xmlns="http://www.w3.org/2000/svg">
<rect width="62.5157" height="63.8458" rx="17.2916" fill="black"/>
<path d="M17.9376 22.7353C17.9376 21.7076 18.3459 20.722 19.0726 19.9953C19.7993 19.2686 20.7849 18.8604 21.8126 18.8604" stroke="white" stroke-width="1.9375" stroke-linecap="round" stroke-linejoin="round"/>
<path d="M45.0624 22.7353C45.0624 21.7076 44.6541 20.722 43.9274 19.9953C43.2007 19.2686 42.2151 18.8604 41.1874 18.8604" stroke="white" stroke-width="1.9375" stroke-linecap="round" stroke-linejoin="round"/>
<path d="M45.0624 42.1099C45.0624 43.1376 44.6541 44.1232 43.9274 44.8499C43.2007 45.5766 42.2151 45.9849 41.1874 45.9849" stroke="white" stroke-width="1.9375" stroke-linecap="round" stroke-linejoin="round"/>
<path d="M17.9376 42.1099C17.9376 43.1376 18.3459 44.1232 19.0726 44.8499C19.7993 45.5766 20.7849 45.9849 21.8126 45.9849" stroke="white" stroke-width="1.9375" stroke-linecap="round" stroke-linejoin="round"/>
<path d="M45.0624 34.3604V38.2353" stroke="white" stroke-width="1.9375" stroke-linecap="round" stroke-linejoin="round"/>
<path d="M45.0624 26.6104V30.4853" stroke="white" stroke-width="1.9375" stroke-linecap="round" stroke-linejoin="round"/>
<path d="M17.9376 34.3604V38.2353" stroke="white" stroke-width="1.9375" stroke-linecap="round" stroke-linejoin="round"/>
<path d="M17.9376 26.6104V30.4853" stroke="white" stroke-width="1.9375" stroke-linecap="round" stroke-linejoin="round"/>
<path d="M29.5625 18.8604H25.6875" stroke="white" stroke-width="1.9375" stroke-linecap="round" stroke-linejoin="round"/>
<path d="M37.3125 18.8604H33.4375" stroke="white" stroke-width="1.9375" stroke-linecap="round" stroke-linejoin="round"/>
<path d="M29.5625 45.9849H25.6875" stroke="white" stroke-width="1.9375" stroke-linecap="round" stroke-linejoin="round"/>
<path d="M37.3125 45.9849H33.4375" stroke="white" stroke-width="1.9375" stroke-linecap="round" stroke-linejoin="round"/>
<path d="M27.625 32.4229H35.3749" stroke="white" stroke-width="1.9375" stroke-linecap="round" stroke-linejoin="round"/>
<path d="M31.5 28.5479V36.2978" stroke="white" stroke-width="1.9375" stroke-linecap="round" stroke-linejoin="round"/>
</svg>
