<svg width="24" height="22" viewBox="0 0 24 22" fill="none" xmlns="http://www.w3.org/2000/svg">
<g id="heart (6) 1">
<g id="Group">
<g id="Group_2">
<path id="Vector" d="M21.4863 2.15715C20.3008 0.87807 18.6397 0.150293 16.8992 0.147595C15.1574 0.149618 13.4945 0.877009 12.3072 2.15633L11.9026 2.58555L11.4979 2.15633C9.14198 -0.388964 5.17649 -0.535136 2.64089 1.82978C2.52853 1.93461 2.42002 2.04349 2.31558 2.15633C-0.183643 4.86229 -0.183643 9.04424 2.31558 11.7502L11.3079 21.2693C11.619 21.5989 12.1375 21.6131 12.4659 21.3008C12.4767 21.2906 12.4871 21.2801 12.4973 21.2693L21.4864 11.7502C23.9854 9.04453 23.9854 4.86282 21.4863 2.15715ZM20.3011 10.618H20.3003L11.9026 19.5088L3.50414 10.618C1.59488 8.55037 1.59488 5.35535 3.50414 3.28774C5.23798 1.40138 8.167 1.2831 10.0462 3.02353C10.1375 3.10804 10.2252 3.19615 10.3094 3.28774L11.3079 4.34515C11.637 4.67334 12.1682 4.67334 12.4973 4.34515L13.4958 3.28856C15.2296 1.4022 18.1586 1.28392 20.0379 3.02435C20.1291 3.10885 20.2169 3.19697 20.3011 3.28856C22.2269 5.35944 22.241 8.56029 20.3011 10.618Z" fill="#4152CA"/>
</g>
</g>
</g>
</svg>
