<svg width="63" height="64" viewBox="0 0 63 64" fill="none" xmlns="http://www.w3.org/2000/svg">
<rect width="62.5157" height="63.8458" rx="17.2916" fill="black"/>
<path d="M21.947 34.751C21.5524 34.751 21.1666 34.868 20.8385 35.0872C20.5104 35.3065 20.2547 35.6181 20.1037 35.9826C19.9526 36.3472 19.9131 36.7484 19.9901 37.1354C20.0671 37.5224 20.2571 37.8779 20.5362 38.157C20.8152 38.436 21.1707 38.626 21.5577 38.703C21.9448 38.78 22.3459 38.7405 22.7105 38.5895C23.0751 38.4385 23.3867 38.1827 23.6059 37.8546C23.8251 37.5265 23.9421 37.1408 23.9421 36.7462C23.9421 36.217 23.7319 35.7095 23.3578 35.3354C22.9836 34.9612 22.4761 34.751 21.947 34.751ZM21.947 37.7438C21.7497 37.7438 21.5568 37.6853 21.3927 37.5756C21.2287 37.466 21.1008 37.3102 21.0253 37.1279C20.9498 36.9456 20.9301 36.7451 20.9685 36.5515C21.007 36.358 21.102 36.1803 21.2416 36.0408C21.3811 35.9012 21.5588 35.8062 21.7523 35.7677C21.9459 35.7292 22.1464 35.749 22.3287 35.8245C22.511 35.9 22.6668 36.0279 22.7764 36.1919C22.8861 36.356 22.9446 36.5489 22.9446 36.7462C22.9446 37.0107 22.8395 37.2645 22.6524 37.4516C22.4653 37.6387 22.2115 37.7438 21.947 37.7438Z" fill="white"/>
<path d="M41.8987 34.751C41.5041 34.751 41.1184 34.868 40.7903 35.0872C40.4622 35.3065 40.2064 35.6181 40.0554 35.9826C39.9044 36.3472 39.8649 36.7484 39.9419 37.1354C40.0189 37.5224 40.2089 37.8779 40.4879 38.157C40.767 38.436 41.1225 38.626 41.5095 38.703C41.8965 38.78 42.2977 38.7405 42.6623 38.5895C43.0268 38.4385 43.3384 38.1827 43.5577 37.8546C43.7769 37.5265 43.8939 37.1408 43.8939 36.7462C43.8939 36.217 43.6837 35.7095 43.3095 35.3354C42.9354 34.9612 42.4279 34.751 41.8987 34.751ZM41.8987 37.7438C41.7014 37.7438 41.5086 37.6853 41.3445 37.5756C41.1805 37.466 41.0526 37.3102 40.9771 37.1279C40.9016 36.9456 40.8818 36.7451 40.9203 36.5515C40.9588 36.358 41.0538 36.1803 41.1933 36.0408C41.3329 35.9012 41.5106 35.8062 41.7041 35.7677C41.8976 35.7292 42.0982 35.749 42.2805 35.8245C42.4628 35.9 42.6186 36.0279 42.7282 36.1919C42.8378 36.356 42.8963 36.5489 42.8963 36.7462C42.8963 37.0107 42.7912 37.2645 42.6041 37.4516C42.4171 37.6387 42.1633 37.7438 41.8987 37.7438Z" fill="white"/>
<path d="M27.4336 37.2437H36.4119V38.2412H27.4336V37.2437Z" fill="white"/>
<path d="M27.4336 35.2495H36.4119V36.2471H27.4336V35.2495Z" fill="white"/>
<path d="M30.4265 27.7671H33.4193V28.7647H30.4265V27.7671Z" fill="white"/>
<path d="M46.8867 32.2565V31.2589C46.8855 30.8624 46.7275 30.4825 46.4471 30.2021C46.1668 29.9217 45.7868 29.7637 45.3903 29.7625H43.4151L42.3826 26.1412L42.0733 24.9092C41.9922 24.5857 41.8053 24.2986 41.5423 24.0935C41.2793 23.8883 40.9554 23.7769 40.6218 23.777H36.412V21.7818C36.4112 21.5174 36.3059 21.2642 36.119 21.0772C35.932 20.8903 35.6788 20.785 35.4144 20.7842H28.4313C28.1669 20.785 27.9137 20.8903 27.7268 21.0772C27.5398 21.2642 27.4345 21.5174 27.4337 21.7818V23.777H23.2239C22.8903 23.7769 22.5664 23.8883 22.3034 24.0935C22.0404 24.2986 21.8535 24.5857 21.7724 24.9092L21.4681 26.1363L20.4306 29.7625H18.4554C18.0589 29.7637 17.6789 29.9217 17.3986 30.2021C17.1182 30.4825 16.9602 30.8624 16.959 31.2589V32.2565C16.9598 32.5092 17.0247 32.7575 17.1478 32.9782C17.2708 33.1989 17.4478 33.3848 17.6623 33.5184C17.2114 33.9818 16.959 34.6027 16.959 35.2493V41.2348C16.9597 41.4441 17.0044 41.6508 17.0904 41.8416C17.1763 42.0324 17.3015 42.2029 17.4578 42.3421V44.2276C17.459 44.6241 17.617 45.004 17.8974 45.2844C18.1777 45.5647 18.5577 45.7228 18.9542 45.724H22.9445C23.341 45.7228 23.721 45.5647 24.0013 45.2844C24.2817 45.004 24.4397 44.6241 24.4409 44.2276V42.7312H39.4048V44.2276C39.406 44.6241 39.564 45.004 39.8444 45.2844C40.1247 45.5647 40.5047 45.7228 40.9012 45.724H44.8915C45.288 45.7228 45.668 45.5647 45.9483 45.2844C46.2287 45.004 46.3867 44.6241 46.3879 44.2276V42.3421C46.5442 42.2029 46.6694 42.0324 46.7553 41.8416C46.8413 41.6508 46.886 41.4441 46.8867 41.2348V35.2493C46.8867 34.6027 46.6343 33.9818 46.1834 33.5184C46.3979 33.3848 46.5749 33.1989 46.698 32.9782C46.821 32.7575 46.8859 32.5092 46.8867 32.2565ZM28.4313 21.7818H35.4144V23.777H28.4313V21.7818ZM22.74 25.1536C22.7668 25.0455 22.8289 24.9494 22.9166 24.8807C23.0043 24.812 23.1125 24.7746 23.2239 24.7745H40.6218C40.7332 24.7746 40.8414 24.812 40.9291 24.8807C41.0168 24.9494 41.0789 25.0455 41.1057 25.1536L41.2603 25.7721H22.5854L22.74 25.1536ZM22.321 26.7697H41.5247L43.2305 32.7553H28.8852C28.768 32.0582 28.4075 31.4252 27.8678 30.9687C27.3281 30.5123 26.6442 30.2618 25.9373 30.2618C25.2305 30.2618 24.5465 30.5123 24.0068 30.9687C23.4671 31.4252 23.1067 32.0582 22.9894 32.7553H20.6152L22.321 26.7697ZM27.8627 32.7553H24.012C24.1209 32.3273 24.3693 31.9478 24.7179 31.6767C25.0666 31.4056 25.4957 31.2585 25.9373 31.2585C26.3789 31.2585 26.808 31.4056 27.1567 31.6767C27.5053 31.9478 27.7538 32.3273 27.8627 32.7553ZM17.9566 31.2589C17.9566 31.1266 18.0091 30.9997 18.1027 30.9062C18.1962 30.8126 18.3231 30.7601 18.4554 30.7601H20.1463L19.5777 32.7553H18.4554C18.3231 32.7553 18.1962 32.7027 18.1027 32.6092C18.0091 32.5156 17.9566 32.3888 17.9566 32.2565V31.2589ZM23.4433 44.2276C23.4433 44.3599 23.3908 44.4867 23.2972 44.5803C23.2037 44.6738 23.0768 44.7264 22.9445 44.7264H18.9542C18.8219 44.7264 18.695 44.6738 18.6015 44.5803C18.5079 44.4867 18.4554 44.3599 18.4554 44.2276V42.7312H23.4433V44.2276ZM45.3903 44.2276C45.3903 44.3599 45.3378 44.4867 45.2442 44.5803C45.1507 44.6738 45.0238 44.7264 44.8915 44.7264H40.9012C40.7689 44.7264 40.642 44.6738 40.5485 44.5803C40.4549 44.4867 40.4024 44.3599 40.4024 44.2276V42.7312H45.3903V44.2276ZM45.8891 41.2348C45.8891 41.3671 45.8366 41.494 45.743 41.5875C45.6495 41.681 45.5226 41.7336 45.3903 41.7336H18.4554C18.3231 41.7336 18.1962 41.681 18.1027 41.5875C18.0091 41.494 17.9566 41.3671 17.9566 41.2348V40.736H45.8891V41.2348ZM45.8891 39.7384H17.9566V35.2493C17.9578 34.8527 18.1158 34.4728 18.3962 34.1925C18.6765 33.9121 19.0565 33.754 19.453 33.7529H44.3927C44.7892 33.754 45.1692 33.9121 45.4495 34.1925C45.7299 34.4728 45.8879 34.8527 45.8891 35.2493V39.7384ZM45.8891 32.2565C45.8891 32.3888 45.8366 32.5156 45.743 32.6092C45.6495 32.7027 45.5226 32.7553 45.3903 32.7553H44.268L43.6994 30.7601H45.3903C45.5226 30.7601 45.6495 30.8126 45.743 30.9062C45.8366 30.9997 45.8891 31.1266 45.8891 31.2589V32.2565Z" fill="white"/>
</svg>
