<svg width="17" height="17" viewBox="0 0 17 17" fill="none" xmlns="http://www.w3.org/2000/svg">
<g clip-path="url(#clip0_144_412)">
<path d="M16.3412 0.391275C15.9185 0.267093 5.57828 -0.766306 1.94688 4.15843C0.338574 6.3401 0.314414 9.33081 1.86629 13.0468C1.47262 13.867 1.128 14.731 0.847144 15.6426C0.761755 15.9197 0.916206 16.2134 1.19186 16.2988C1.24325 16.3149 1.2953 16.3224 1.34669 16.3224C1.56954 16.3224 1.77645 16.1779 1.84551 15.9528C4.61329 6.97054 13.6079 2.62503 16.3662 1.52725C16.6347 1.42033 16.9934 0.582894 16.3412 0.391275Z" fill="#84829A"/>
<path d="M3.52588 14.1712C5.02298 14.8016 6.51986 15.1247 7.91186 15.1247C9.16304 15.1247 10.3299 14.8665 11.3354 14.3429C13.3589 13.2891 14.5955 11.2735 14.9113 8.51331C15.233 5.70026 15.6335 3.93826 15.9677 2.86035C12.9935 4.23748 6.6164 7.8071 3.52588 14.1712Z" fill="#84829A"/>
</g>
<defs>
<clipPath id="clip0_144_412">
<rect width="16.0436" height="16.1046" fill="white" transform="translate(0.693115 0.216797)"/>
</clipPath>
</defs>
</svg>
