<svg width="71" height="71" viewBox="0 0 71 71" fill="none" xmlns="http://www.w3.org/2000/svg">
<path d="M30.2513 20.0625C29.8072 20.2207 29.3738 20.3962 28.9513 20.589M24.8157 23.2573C24.4474 23.5791 24.0939 23.9175 23.7562 24.2713M20.9271 28.2931C20.6237 28.8998 20.3599 29.5265 20.1357 30.1733M19.2761 34.512C19.2403 35.1441 19.2419 35.7893 19.2793 36.4214M20.1731 40.8072C20.3897 41.4139 20.6411 42.0043 20.9271 42.5785M23.6229 46.4574C24.0194 46.8831 24.4382 47.2872 24.8791 47.6696M28.6361 50.1348C29.2807 50.4458 29.9451 50.714 30.6251 50.9375M35.5001 51.75C44.4749 51.75 51.7501 44.4749 51.7501 35.5C51.7501 26.5251 44.4749 19.25 35.5001 19.25" stroke="#CCCCCC" stroke-width="2.4375" stroke-linecap="round" stroke-linejoin="round"/>
<path d="M35.5002 37.9375C36.1467 37.9375 36.7667 37.6807 37.2238 37.2236C37.6809 36.7665 37.9377 36.1465 37.9377 35.5C37.9377 34.8535 37.6809 34.2335 37.2238 33.7764C36.7667 33.3193 36.1467 33.0625 35.5002 33.0625M35.5002 37.9375C34.8538 37.9375 34.2338 37.6807 33.7767 37.2236C33.3196 36.7665 33.0627 36.1465 33.0627 35.5C33.0627 34.8535 33.3196 34.2335 33.7767 33.7764C34.2338 33.3193 34.8538 33.0625 35.5002 33.0625M35.5002 37.9375V42M35.5002 33.0625V25.75" stroke="#CCCCCC" stroke-width="2.4375" stroke-linecap="round" stroke-linejoin="round"/>
</svg>
