<svg width="17" height="17" viewBox="0 0 17 17" fill="none" xmlns="http://www.w3.org/2000/svg">
<g clip-path="url(#clip0_144_426)">
<path d="M15.9018 0.065918C15.8128 0.0658843 15.725 0.0866439 15.6454 0.126579L11.3034 2.30643L6.39357 0.11566C6.38555 0.112223 6.37638 0.111616 6.36779 0.108179C6.3457 0.0998882 6.3231 0.0929796 6.30017 0.0874864C6.27738 0.0813192 6.25421 0.0765 6.23084 0.0730962C6.18431 0.0692544 6.13755 0.0692544 6.09105 0.0730962C6.06768 0.0765 6.04451 0.0813192 6.02172 0.0874864C5.99879 0.0929796 5.97619 0.0998882 5.9541 0.108179C5.94551 0.111616 5.93634 0.112189 5.92832 0.11566L0.771515 2.4163C0.564504 2.50857 0.431119 2.71462 0.431152 2.94196V15.5954C0.431253 15.79 0.52932 15.9713 0.691846 16.0774C0.854406 16.1836 1.05944 16.2001 1.23674 16.1211L6.16091 13.924L11.0851 16.1211C11.0937 16.1246 11.1028 16.1211 11.1114 16.1263C11.2502 16.1886 11.4094 16.185 11.5452 16.1165C11.5543 16.1125 11.5646 16.1165 11.5738 16.1102L16.1576 13.8096C16.3519 13.7121 16.4746 13.5128 16.4745 13.2948V0.641356C16.4747 0.323694 16.2183 0.0660528 15.9018 0.065918ZM5.58796 12.9209L1.5771 14.7102V3.31583L5.58796 1.5265V12.9209ZM10.7448 14.7102L6.7339 12.9209V1.5265L10.7448 3.3158V14.7102ZM15.3286 12.9393L11.8907 14.6648V3.2974L15.3286 1.57193V12.9393Z" fill="#84829A"/>
</g>
<defs>
<clipPath id="clip0_144_426">
<rect width="16.0436" height="16.1046" fill="white" transform="translate(0.429932 0.0644531)"/>
</clipPath>
</defs>
</svg>
