<svg width="71" height="71" viewBox="0 0 71 71" fill="none" xmlns="http://www.w3.org/2000/svg">
<path d="M42.2695 51.0011L37.6561 46.3877L38.7758 45.2697L42.2289 48.7212L49.1351 41.815L50.2531 42.9752L42.2695 51.0011ZM28.0248 42.4698L26.9051 41.3502L29.5051 38.7502L26.9051 36.1502L28.0248 35.0322L30.6248 37.6322L33.2248 35.0322L34.3444 36.1502L31.7444 38.7502L34.3444 41.3502L33.2248 42.4682L30.6248 39.8682L28.0248 42.4698ZM25.1258 50.1252C24.3772 50.1252 23.7526 49.875 23.2521 49.3745C22.7516 48.874 22.5008 48.2494 22.4998 47.5008V26.7496C22.4998 26.0021 22.7505 25.3781 23.2521 24.8776C23.7537 24.3771 24.3783 24.1263 25.1258 24.1252H28.0004V20.5015H29.7505V24.1252H41.3758V20.5015H43.0008V24.1252H45.8754C46.6229 24.1252 47.2474 24.376 47.749 24.8776C48.2506 25.3792 48.5008 26.0037 48.4998 26.7512V36.0381L46.8748 37.7037V33.2512H24.1248V47.5008C24.1248 47.75 24.2288 47.9791 24.4368 48.1882C24.6448 48.3973 24.8739 48.5013 25.1241 48.5002H33.3743L35.0529 50.1252H25.1258ZM24.1248 31.6246H46.8748V26.7496C46.8748 26.5004 46.7708 26.2713 46.5628 26.0622C46.3548 25.8531 46.1251 25.7491 45.8738 25.7502H25.1258C24.8755 25.7502 24.6458 25.8542 24.4368 26.0622C24.2277 26.2702 24.1237 26.4999 24.1248 26.7512V31.6246Z" fill="#CCCCCC"/>
</svg>
