<svg width="17" height="17" viewBox="0 0 17 17" fill="none" xmlns="http://www.w3.org/2000/svg">
<path d="M14.8739 1.64508L7.63424 8.93914C7.55124 8.89087 7.46397 8.85044 7.37353 8.81835L2.59386 7.19447C2.44932 7.1581 2.32102 7.0743 2.22935 6.95638C2.13768 6.83845 2.08789 6.69315 2.08789 6.54357C2.08789 6.39399 2.13768 6.2487 2.22935 6.13077C2.32102 6.01284 2.44932 5.92904 2.59386 5.89268L14.4528 1.6585C14.5303 1.63208 14.6116 1.61848 14.6934 1.61824C14.7547 1.61725 14.8156 1.62631 14.8739 1.64508Z" fill="#84829A"/>
<path d="M15.335 2.54531L11.1169 14.4627C11.0704 14.6016 10.9799 14.7214 10.8592 14.8038C10.7384 14.8862 10.5942 14.9267 10.4484 14.919C10.301 14.9258 10.1554 14.8834 10.0345 14.7984C9.91356 14.7135 9.82405 14.5907 9.77993 14.4493L8.18893 9.65148C8.15697 9.5607 8.11669 9.47309 8.0686 9.38978L15.3484 2.12256C15.3895 2.26124 15.3848 2.40952 15.335 2.54531Z" fill="#84829A"/>
</svg>
