<svg width="71" height="71" viewBox="0 0 71 71" fill="none" xmlns="http://www.w3.org/2000/svg">
<path d="M23.501 48.5C22.773 48.5 22.1533 48.2443 21.642 47.733C21.1307 47.2217 20.875 46.6025 20.875 45.8756V29.9994C20.875 29.2735 21.1307 28.6544 21.642 28.142C22.1533 27.6307 22.773 27.375 23.501 27.375H30.625V25.1244C30.625 24.3985 30.8807 23.7794 31.392 23.267C31.9033 22.7557 32.523 22.5 33.251 22.5H37.7506C38.4765 22.5 39.0956 22.7557 39.608 23.267C40.1193 23.7783 40.375 24.3975 40.375 25.1244V27.375H47.5006C48.2265 27.375 48.8456 27.6307 49.358 28.142C49.8693 28.6533 50.125 29.273 50.125 30.001V45.8756C50.125 46.6015 49.8693 47.2206 49.358 47.733C48.8467 48.2443 48.2275 48.5 47.5006 48.5H23.501ZM32.25 27.375H38.75V25.1244C38.75 24.8752 38.646 24.6461 38.438 24.437C38.23 24.2279 38.0009 24.1239 37.7506 24.125H33.2494C33.0002 24.125 32.7711 24.229 32.562 24.437C32.3529 24.645 32.2489 24.8741 32.25 25.1244V27.375ZM27.375 29H23.501C23.2508 29 23.0211 29.104 22.812 29.312C22.6029 29.52 22.4989 29.7497 22.5 30.001V45.8756C22.5 46.1248 22.604 46.3539 22.812 46.563C23.02 46.7721 23.2491 46.8761 23.4994 46.875H27.375V29ZM42 46.875V29H29V46.875H42ZM43.625 29V46.875H47.5006C47.7498 46.875 47.9789 46.771 48.188 46.563C48.3971 46.355 48.5011 46.1253 48.5 45.874V30.001C48.5 29.7508 48.396 29.5211 48.188 29.312C47.98 29.1029 47.7509 28.9989 47.5006 29H43.625Z" fill="#CCCCCC"/>
</svg>
