<svg width="1405" height="1486" viewBox="0 0 1405 1486" fill="none" xmlns="http://www.w3.org/2000/svg">
<rect width="1405" height="1486" rx="702.5" fill="#013976"/>
<path d="M657.54 263.146H890.77L899.2 283.785L924.49 358.601L941.35 412.778L972.26 508.233L997.55 583.049L1025.65 670.764L1059.37 776.538L1064.99 789.438V799.757H876.72L859.86 737.84L843 670.764L820.52 580.469L803.66 518.552L798.04 495.333V482.434H792.42L789.61 505.653L778.37 546.931L750.27 650.125L736.22 699.143L719.36 766.219L708.12 810.077L705.31 815.236L820.52 812.656L1138.05 810.077L1183.01 812.656L1250.45 830.715L1264.5 843.615L1275.74 871.993L1289.79 936.49L1303.84 990.667V1031.94L1298.22 1055.16L1286.98 1068.06L1202.68 1070.64L1185.82 1086.12L1177.39 1088.7H1152.1L1132.43 1080.96L1126.81 1070.64H637.87L626.63 1117.08L609.77 1179L598.53 1222.85H359.68L362.49 1204.8L393.4 1104.18L413.07 1044.84L432.74 977.768L452.41 918.431L469.27 859.094L488.94 797.177L505.8 743L525.47 678.504L545.14 616.587L564.81 552.09L584.48 490.174L621.01 371.5L640.68 309.583L654.73 265.726L657.54 263.146ZM1056.56 853.934L694.07 856.514L688.45 874.573L682.83 890.052V900.372L980.69 902.952H1067.8L1107.14 900.372L1146.48 887.472L1191.44 877.153L1244.83 871.993L1250.45 866.833L1239.21 856.514L1056.56 853.934ZM1239.21 887.472L1183.01 895.212L1143.67 908.111L1132.43 915.851L1135.24 926.17L1160.53 941.649L1208.3 959.708L1239.21 972.608L1272.93 985.507H1278.55L1275.74 964.868L1258.88 895.212L1256.07 887.472H1239.21ZM668.78 949.389L646.3 1031.94L1036.89 1034.52H1124L1135.24 1019.05L1146.48 1013.89H1177.39L1191.44 1021.63L1202.68 1034.52H1278.55V1011.31L1267.31 1003.57L1174.58 967.448L1140.86 954.549L806.47 951.969L668.78 949.389ZM1152.1 1029.36L1140.86 1039.68V1060.32L1154.91 1070.64L1177.39 1068.06L1185.82 1057.74V1042.26L1174.58 1029.36H1152.1Z" fill="#FAA519"/>
<path d="M623.82 319.903H629.44L618.2 363.76L598.53 423.097L553.57 448.896L519.85 472.115L486.13 500.493L477.7 508.233L471.5 513.5L466.46 518.552L438.36 549.51L413.07 585.629L390.59 624.326L376.54 657.865H289.43H284.5L303.48 601.108L337.2 536.611L362.49 500.493L382.16 477.274L407.45 448.896L446.79 412.778L483.32 386.979L486.5 384.5L488.94 381.819L528.28 358.601L573.24 337.962L606.96 325.063L623.82 319.903Z" fill="#FAA519"/>
<path d="M312.021 667.965C314.545 666.421 317.445 665.604 320.403 665.604H323.528C331.184 665.604 338.484 668.837 343.629 674.506L344.661 675.642C347.907 679.219 350.261 683.513 351.53 688.173L353.634 695.897C354.689 699.772 355.376 703.737 355.688 707.741L358.03 737.84L388.94 755.899L419.85 773.958L459.19 797.177L462 802.337V820.396L459.19 825.555H439.52L372.08 807.496L352.41 802.337V859.5L360.35 867L362.85 870L365.85 873.5L378.35 887.5L377.7 908.111L360.84 905.531L328 888.5L304.64 900.371L287.78 908.111L273.73 905.531V887.472L299.02 859.094V802.337L234.39 820.396L211.91 825.555H195.05L189.43 817.816V802.337L195.05 794.597L220.34 781.698L245.63 766.219L284.97 743L293.4 737.84L295.513 708.731C295.975 702.376 297.404 696.128 299.75 690.204L305.476 675.747C306.757 672.513 309.054 669.782 312.021 667.965Z" fill="#FAA519"/>
<path d="M632.25 1119.66L663.16 1124.82L739.03 1142.88L798.04 1153.2L837.38 1158.36L918.87 1163.52V1168.68L904.82 1173.84L828.95 1186.74L767.13 1191.9L654.73 1194.48L618.2 1191.9L623.82 1153.2L629.44 1122.24L632.25 1119.66Z" fill="#FAA519"/>
<path d="M295.05 915.851H365.3L382.16 962.288L401.83 1003.57L413.07 1019.05L404.64 1050L396.21 1075.8L394 1082.5L387.78 1075.8L365.3 1050L331.58 1000.99L303.48 946.809L295.05 923.59V915.851Z" fill="#FAA519"/>
</svg>
