<svg width="116" height="116" viewBox="0 0 116 116" fill="none" xmlns="http://www.w3.org/2000/svg">
<path d="M96.4852 89.6903C96.4852 101.444 86.957 110.972 75.2033 110.972L38.5167 110.972C35.2518 110.972 32.6051 108.326 32.6051 105.061L32.6051 58.3492C32.6051 51.8193 37.8985 46.5259 44.4284 46.5259L90.5736 46.5259C93.8385 46.5259 96.4852 49.1726 96.4852 52.4375L96.4852 89.6903Z" fill="#FFF1DA"/>
<g clip-path="url(#clip0_774_674)">
<path d="M67.1111 10.8046H48.8889C47.6361 10.8046 46.6111 9.50478 46.6111 7.91614C46.6111 6.3275 47.6361 5.02771 48.8889 5.02771H67.1111C68.3639 5.02771 69.3889 6.3275 69.3889 7.91614C69.3889 9.50478 68.3639 10.8046 67.1111 10.8046Z" fill="#292F33"/>
<path d="M46.6111 7.91614H51.1666V13.693H46.6111V7.91614ZM64.8333 7.91614H69.3889V13.693H64.8333V7.91614Z" fill="#292F33"/>
<path d="M46.6111 13.6927H51.1666V31.0233H46.6111V13.6927ZM64.8333 13.6927H69.3889V31.0233H64.8333V13.6927Z" fill="#CCD6DD"/>
<path d="M32.9444 77.2384C31.6916 77.2384 30.6666 75.9386 30.6666 74.35V57.0194C30.6666 55.4308 31.6916 54.131 32.9444 54.131C34.1972 54.131 35.2222 55.4308 35.2222 57.0194V74.35C35.2222 75.9386 34.1972 77.2384 32.9444 77.2384ZM39.7777 103.812H37.5C36.2472 103.812 35.2222 102.512 35.2222 100.924V98.0351C35.2222 96.4465 36.2472 95.1467 37.5 95.1467H39.7777C41.0305 95.1467 42.0555 96.4465 42.0555 98.0351V100.924C42.0555 102.512 41.0305 103.812 39.7777 103.812ZM78.5 103.812H76.2222C74.9694 103.812 73.9444 102.512 73.9444 100.924V98.0351C73.9444 96.4465 74.9694 95.1467 76.2222 95.1467H78.5C79.7527 95.1467 80.7777 96.4465 80.7777 98.0351V100.924C80.7777 102.512 79.7527 103.812 78.5 103.812Z" fill="#292F33"/>
<path d="M78.5 100.346H37.5C34.9945 100.346 32.9445 97.7463 32.9445 94.569V33.912C32.9445 30.7347 34.9945 28.1351 37.5 28.1351H78.5C81.0056 28.1351 83.0556 30.7347 83.0556 33.912V94.569C83.0556 97.7463 81.0056 100.346 78.5 100.346Z" fill="#4289C1"/>
<path d="M76.2222 57.0199H39.7778C38.525 57.0199 37.5 55.7201 37.5 54.1315V36.8009C37.5 35.2123 38.525 33.9125 39.7778 33.9125H76.2222C77.475 33.9125 78.5 35.2123 78.5 36.8009V54.1315C78.5 55.7201 77.475 57.0199 76.2222 57.0199ZM76.2222 94.5695H39.7778C38.525 94.5695 37.5 93.2697 37.5 91.6811V62.7968C37.5 61.2081 38.525 59.9083 39.7778 59.9083H76.2222C77.475 59.9083 78.5 61.2081 78.5 62.7968V91.6811C78.5 93.2697 77.475 94.5695 76.2222 94.5695Z" fill="#5DADEC"/>
<path d="M37.4999 109.012C38.7579 109.012 39.7777 107.718 39.7777 106.123C39.7777 104.528 38.7579 103.235 37.4999 103.235C36.242 103.235 35.2222 104.528 35.2222 106.123C35.2222 107.718 36.242 109.012 37.4999 109.012Z" fill="#292F33"/>
<path d="M78.4999 109.012C79.7579 109.012 80.7777 107.718 80.7777 106.123C80.7777 104.528 79.7579 103.235 78.4999 103.235C77.242 103.235 76.2222 104.528 76.2222 106.123C76.2222 107.718 77.242 109.012 78.4999 109.012Z" fill="#292F33"/>
<path d="M75.0834 39.6886H40.9167C40.2903 39.6886 39.7778 39.0387 39.7778 38.2444C39.7778 37.4501 40.2903 36.8002 40.9167 36.8002H75.0834C75.7098 36.8002 76.2223 37.4501 76.2223 38.2444C76.2223 39.0387 75.7098 39.6886 75.0834 39.6886ZM75.0834 65.6845H40.9167C40.2903 65.6845 39.7778 65.0346 39.7778 64.2403C39.7778 63.4459 40.2903 62.796 40.9167 62.796H75.0834C75.7098 62.796 76.2223 63.4459 76.2223 64.2403C76.2223 65.0346 75.7098 65.6845 75.0834 65.6845Z" fill="#2A6797"/>
<path d="M43.1945 39.6886H40.9167C40.2903 39.6886 39.7778 39.0387 39.7778 38.2444C39.7778 37.4501 40.2903 36.8002 40.9167 36.8002H43.1945C43.8209 36.8002 44.3334 37.4501 44.3334 38.2444C44.3334 39.0387 43.8209 39.6886 43.1945 39.6886ZM43.1945 65.6845H40.9167C40.2903 65.6845 39.7778 65.0346 39.7778 64.2403C39.7778 63.4459 40.2903 62.796 40.9167 62.796H43.1945C43.8209 62.796 44.3334 63.4459 44.3334 64.2403C44.3334 65.0346 43.8209 65.6845 43.1945 65.6845Z" fill="#F5F8FA"/>
</g>
<defs>
<clipPath id="clip0_774_674">
<rect width="82" height="103.983" fill="white" transform="translate(17 5.02771)"/>
</clipPath>
</defs>
</svg>
