<svg width="63" height="64" viewBox="0 0 63 64" fill="none" xmlns="http://www.w3.org/2000/svg">
<rect x="0.5" y="0.5" width="61.5157" height="62.8458" rx="16.7916" fill="black" stroke="#1B120E"/>
<path d="M31.0653 44.9978C31.5818 44.9978 32.0173 44.8079 32.372 44.4279C32.7267 44.0479 32.904 43.5812 32.904 43.0279C32.904 42.4745 32.7251 42.0079 32.3673 41.6279C32.0127 41.2479 31.5771 41.0579 31.0607 41.0579C30.5442 41.0579 30.1087 41.2487 29.754 41.6304C29.3993 42.012 29.2228 42.4787 29.2243 43.0304C29.2243 43.5837 29.4017 44.0504 29.7563 44.4304C30.1141 44.8104 30.5504 45.0004 31.0653 45.0004M29.859 36.7204H32.113C32.1721 35.6337 32.3627 34.7504 32.6847 34.0704C33.0067 33.392 33.6686 32.5254 34.6703 31.4704C35.7126 30.3554 36.4872 29.3562 36.9943 28.4729C37.5014 27.5895 37.7558 26.5679 37.7573 25.4079C37.7573 23.4379 37.1118 21.8679 35.8207 20.6979C34.528 19.5279 32.9989 18.9429 31.2333 18.9429C29.5549 18.9429 28.13 19.4312 26.9587 20.4079C25.7873 21.3862 24.9294 22.5095 24.385 23.7779L26.5317 24.7304C26.905 23.8204 27.4393 23.0162 28.1347 22.3179C28.83 21.6179 29.8333 21.2679 31.1447 21.2679C32.6567 21.2679 33.7611 21.7129 34.458 22.6029C35.1564 23.4929 35.5057 24.4712 35.5057 25.5379C35.5057 26.4045 35.2871 27.1779 34.85 27.8579C34.4144 28.5395 33.8467 29.2245 33.1467 29.9129C31.7933 31.2495 30.9067 32.3829 30.4867 33.3129C30.0667 34.2429 29.8574 35.3787 29.859 36.7204ZM31.007 54.4229C28.1043 54.4229 25.3743 53.8329 22.817 52.6529C20.2612 51.4712 18.0376 49.8678 16.146 47.8428C14.2544 45.8178 12.7572 43.4379 11.6543 40.7029C10.5514 37.9679 10 35.0437 10 31.9304C10 28.817 10.5514 25.892 11.6543 23.1554C12.7557 20.417 14.2498 18.0345 16.1367 16.0079C18.0236 13.9812 20.2457 12.377 22.803 11.1954C25.3603 10.0137 28.0903 9.42285 30.993 9.42285C33.8957 9.42285 36.6257 10.0137 39.183 11.1954C41.7388 12.3754 43.9624 13.977 45.854 16.0004C47.7456 18.0237 49.2428 20.4045 50.3457 23.1429C51.4486 25.8812 52 28.8054 52 31.9154C52 35.0254 51.4493 37.9504 50.348 40.6904C49.2467 43.4304 47.7502 45.8128 45.8587 47.8378C43.9671 49.8628 41.7458 51.467 39.1947 52.6504C36.6436 53.8337 33.9143 54.4245 31.007 54.4229ZM31 51.9229C36.2111 51.9229 40.625 49.9854 44.2417 46.1104C47.8583 42.2354 49.6667 37.5062 49.6667 31.9229C49.6667 26.3395 47.8583 21.6104 44.2417 17.7354C40.625 13.8604 36.2111 11.9229 31 11.9229C25.7889 11.9229 21.375 13.8604 17.7583 17.7354C14.1417 21.6104 12.3333 26.3395 12.3333 31.9229C12.3333 37.5062 14.1417 42.2354 17.7583 46.1104C21.375 49.9854 25.7889 51.9229 31 51.9229Z" fill="white"/>
</svg>
