<svg width="116" height="121" viewBox="0 0 116 121" fill="none" xmlns="http://www.w3.org/2000/svg">
<g filter="url(#filter0_d_774_676)">
<path d="M41.7895 55.3211C41.7896 65.9934 50.4411 74.6449 61.1133 74.6449L106.64 74.6449C109.604 74.6449 112.007 72.2417 112.007 69.2772L112.007 23.2335C112.007 17.3045 107.201 12.4981 101.272 12.4981L47.1573 12.4981C44.1928 12.4981 41.7895 14.9013 41.7895 17.8658L41.7895 55.3211Z" fill="#FFF1DA"/>
<path d="M89.6177 22.2344H60.8677L54.3052 36.5406H17.4302V93.7656H96.1802V22.2344H89.6177ZM89.6177 85.9313H24.6177V43.6938H89.6177V85.9313ZM89.6177 36.5406H63.9927L67.1177 29.3875H89.3052V36.5406H89.6177Z" fill="#2D6E91"/>
<path d="M84.3052 50.166H5.55518L17.4302 93.766H96.1802L84.3052 50.166Z" fill="#2D6E91"/>
<path d="M51.1333 38.8364C51.8521 37.995 53.0083 38.2812 53.9302 38.2301C55.0635 38.1453 56.202 38.2105 57.3208 38.4242C58.7521 39.1974 58.349 41.2037 58.6646 42.6173C60.0201 43.0237 61.3294 43.595 62.5677 44.3204C63.2287 43.6713 63.935 43.0791 64.6802 42.5492C65.0393 42.3533 65.4473 42.2905 65.8421 42.3704C66.237 42.4503 66.5971 42.6686 66.8677 42.992C67.724 43.8844 68.5427 44.8212 69.3896 45.717C69.6831 45.9654 69.9117 46.2933 70.0526 46.6681C70.1935 47.0428 70.2418 47.4513 70.1927 47.8527C69.9146 49.0449 68.8177 49.7364 68.4115 50.84C68.9697 52.1023 69.4377 53.4096 69.8115 54.7504C70.749 54.9514 71.7115 54.965 72.6427 55.2034C73.0263 55.3615 73.354 55.6481 73.5787 56.0221C73.8033 56.3961 73.9132 56.8382 73.8927 57.2846C73.8927 58.7153 73.9302 60.1493 73.8927 61.5799C73.886 61.984 73.7668 62.3764 73.5508 62.7049C73.3348 63.0334 73.0323 63.2826 72.6833 63.4193C71.7249 63.632 70.7569 63.79 69.7833 63.8928C69.3923 65.2402 68.9247 66.5599 68.3833 67.844C68.6958 69.2065 70.3208 69.9899 70.2333 71.5534C70.0927 72.7626 69.0333 73.4371 68.3583 74.2784C67.499 75.0959 66.8333 76.3222 65.6396 76.5879C64.2115 76.5879 63.4333 74.9631 62.2271 74.4249C61.3068 74.9383 60.352 75.3745 59.3708 75.7295C59.0396 75.9032 58.4083 75.91 58.4677 76.4788C58.2615 77.8993 58.5302 79.9805 56.974 80.5664C55.5095 80.6978 54.0393 80.7354 52.5708 80.6788C52.1411 80.7347 51.7068 80.6269 51.3417 80.3735C50.9766 80.1202 50.7031 79.7371 50.5677 79.289C50.3577 78.1849 50.2199 77.066 50.1552 75.9407C48.9605 75.4813 47.7899 74.9502 46.649 74.3499C45.6271 74.8507 44.949 75.9849 43.8865 76.4244C43.602 76.5164 43.3015 76.5335 43.0098 76.4743C42.718 76.415 42.4434 76.2812 42.2083 76.0837C41.3396 75.2867 40.5958 74.3397 39.7677 73.495C39.1958 72.875 38.4896 72.1325 38.5802 71.1787C38.8646 69.7958 40.0802 68.9851 40.6115 67.7486C40.1063 66.5742 39.67 65.3659 39.3052 64.1312C37.9177 63.6884 35.9365 64.2709 35.1177 62.6188C34.9253 61.3644 34.8624 60.0905 34.9302 58.8208C34.949 57.7445 34.7396 56.3581 35.7115 55.6769C36.8001 55.2501 37.9454 55.02 39.1021 54.9956C39.4243 53.6009 39.9139 52.2586 40.5583 51.0035C39.8434 50.0846 39.2045 49.0987 38.649 48.0571C38.5505 47.6653 38.5596 47.2506 38.6752 46.8643C38.7907 46.4781 39.0076 46.1372 39.299 45.8839C40.0896 45.0017 40.899 44.1399 41.6958 43.2611C41.9238 42.9487 42.221 42.7046 42.5594 42.5521C42.8979 42.3995 43.2664 42.3434 43.6302 42.3891C44.7396 42.6616 45.3771 43.881 46.3958 44.3204C47.6407 43.6577 48.9211 43.0776 50.2302 42.5833C50.7083 41.4081 50.2708 39.848 51.1333 38.8364ZM53.374 51.7801C52.2069 52.0016 51.1093 52.5382 50.1813 53.3408C49.2533 54.1435 48.5245 55.1866 48.0615 56.3752C47.5614 57.7844 47.4294 59.3172 47.6802 60.8033C47.9572 62.254 48.6189 63.5842 49.5832 64.6286C50.5476 65.6731 51.7721 66.3858 53.1048 66.6784C54.4375 66.971 55.8197 66.8306 57.0798 66.2745C58.3399 65.7185 59.4224 64.7713 60.1931 63.5505C60.9637 62.3298 61.3884 60.8893 61.4146 59.4077C61.4408 57.9262 61.0672 56.4689 60.3403 55.2167C59.6133 53.9646 58.565 52.9727 57.3255 52.3641C56.0859 51.7556 54.7097 51.5573 53.3677 51.7938L53.374 51.7801Z" fill="#5599BF"/>
<path d="M83.224 60.1319C84.1615 60.0672 85.2678 59.6959 86.074 60.4418C86.8115 61.181 86.7771 62.3834 87.0115 63.3678C88.1361 63.6374 89.2356 64.0194 90.2959 64.5089C90.9865 63.8447 91.5896 62.8739 92.574 62.7581C93.449 62.69 94.0834 63.4393 94.7115 63.9912C95.4106 64.5381 96.0256 65.2027 96.5334 65.96C96.9803 67.2509 96.0084 68.3443 95.4115 69.3185C95.9754 70.3352 96.4644 71.399 96.874 72.5C98.0209 72.5783 99.6365 72.2956 100.177 73.733C100.496 75.1484 100.623 76.6069 100.555 78.0624C100.262 79.602 98.5771 79.6599 97.4303 79.9358C97.2396 81.0769 96.8053 82.1397 96.5209 83.2501C96.8334 84.2243 97.9396 84.708 98.149 85.7809C98.374 86.9561 97.4178 87.7906 96.8271 88.6252C96.2521 89.286 95.7896 90.2499 94.8928 90.4271C93.7271 90.6553 92.8865 89.5721 91.9428 89.0373C91.0179 89.6871 90.036 90.2348 89.0115 90.6723C88.9303 91.9837 89.2303 93.9117 87.8084 94.4907C86.485 94.8263 85.1227 94.9411 83.7678 94.8313C82.3709 94.3442 82.4521 92.4981 82.1396 91.2275C81.1021 91.0197 80.149 90.485 79.1209 90.2738C78.1834 90.9959 77.4209 92.4742 76.0834 92.1029C75.2485 91.6243 74.4847 91.0111 73.8178 90.284C73.2678 89.7458 72.5365 89.1804 72.5678 88.2811C72.5115 87.0855 73.6115 86.3498 73.8178 85.2632C73.4459 84.2822 72.8803 83.3966 72.524 82.3985C71.549 82.3032 70.4365 82.5859 69.5834 81.9353C68.799 81.3528 68.8428 80.2083 68.7303 79.2954C68.5975 78.3622 68.608 77.4114 68.7615 76.4819C69.3115 75.2113 70.7803 75.2761 71.8521 74.9423C72.0648 73.777 72.3787 72.6364 72.7896 71.536C72.1646 70.7355 71.2615 70.0713 71.0459 68.9881C70.924 67.9867 71.6709 67.2339 72.1959 66.5254C72.7013 65.7319 73.337 65.047 74.0709 64.5055C75.2428 64.0831 76.1834 65.1425 77.0896 65.7624C78.0548 65.0725 79.0872 64.5013 80.1678 64.0593C80.4146 62.9727 80.0271 61.6068 80.8834 60.7859C81.4928 60.108 82.4303 60.2477 83.224 60.1319ZM83.5365 71.2362C82.2844 71.5048 81.151 72.2231 80.3174 73.2764C79.4839 74.3297 78.9983 75.6572 78.9383 77.0466C78.8783 78.4361 79.2474 79.8074 79.9865 80.9414C80.7256 82.0753 81.7921 82.9065 83.0156 83.3021C84.239 83.6976 85.5488 83.6347 86.7357 83.1234C87.9225 82.6122 88.9178 81.682 89.5626 80.4816C90.2074 79.2812 90.4644 77.8798 90.2925 76.5015C90.1207 75.1232 89.5299 73.8474 88.6146 72.8781C87.9524 72.1783 87.1447 71.6636 86.2605 71.3777C85.3762 71.0918 84.4417 71.0433 83.5365 71.2362ZM59.5084 80.9032C60.4999 80.7399 61.5095 80.7572 62.4959 80.9543C62.9317 81.2161 63.2823 81.6187 63.4994 82.1067C63.7166 82.5948 63.7896 83.1442 63.7084 83.6793C64.5886 84.0496 65.4511 84.468 66.2928 84.9328C66.9178 84.4627 67.5428 83.7712 68.3584 83.8666C69.1021 83.8973 69.6084 84.5785 70.0959 85.0929C70.6115 85.6924 71.2803 86.3362 71.2178 87.2388C71.1803 88.0563 70.549 88.6013 70.2084 89.2826C70.4526 90.1928 70.7662 91.0793 71.1459 91.9326C72.0834 92.1608 73.2928 92.2358 73.6459 93.4143C73.8151 94.4657 73.8151 95.5411 73.6459 96.5924C73.3334 97.8527 71.9959 97.9549 71.0021 98.0775C70.7303 98.9938 70.299 99.8351 69.999 100.738C70.3115 101.487 71.0521 102.073 71.0178 102.976C71.0803 103.827 70.449 104.427 69.9553 104.979C69.4985 105.615 68.8593 106.066 68.1396 106.259C67.249 106.317 66.5959 105.558 65.9521 104.989C65.1152 105.386 64.2611 105.738 63.3928 106.045C63.274 107.165 63.1615 108.647 61.9709 109.025C60.9716 109.2 59.9506 109.162 58.9646 108.913C57.8584 108.405 57.8928 106.964 57.7146 105.874C56.9275 105.597 56.1675 105.235 55.4459 104.795C54.7146 105.323 54.0053 106.212 53.0396 106.055C52.3749 105.811 51.7912 105.358 51.3615 104.754C50.874 104.195 50.2709 103.589 50.3053 102.751C50.3053 101.807 51.0115 101.14 51.5084 100.455C51.1646 99.6205 50.8521 98.7519 50.5521 97.9174C49.5709 97.8391 48.3365 97.7232 47.8928 96.5924C47.6686 95.4701 47.6686 94.3084 47.8928 93.1861C48.3146 92.028 49.5615 91.8781 50.5521 91.8236C50.8209 90.9346 51.1771 90.083 51.4896 89.211C51.2365 88.4378 50.4428 87.8962 50.4865 87.0004C50.3709 86.0568 51.0928 85.4028 51.6365 84.8033C52.0843 84.1947 52.7153 83.7784 53.4178 83.6282C54.2553 83.5703 54.7959 84.381 55.4865 84.7454C56.374 84.4048 57.2084 83.9382 58.1053 83.6384C58.2834 82.5995 58.4334 81.2711 59.5084 80.9032ZM59.7709 89.9332C58.8493 90.1699 58.0168 90.7097 57.386 91.4794C56.7553 92.249 56.3567 93.2114 56.2444 94.2362C56.1321 95.2609 56.3115 96.2985 56.7582 97.2085C57.2048 98.1184 57.8973 98.8568 58.7418 99.3235C59.5862 99.7902 60.5419 99.9628 61.4793 99.8178C62.4168 99.6729 63.2907 99.2174 63.9827 98.5131C64.6748 97.8087 65.1515 96.8896 65.3484 95.8801C65.5452 94.8706 65.4527 93.8196 65.0834 92.8693C64.6571 91.7762 63.8904 90.8822 62.9185 90.345C61.9466 89.8078 60.8318 89.662 59.7709 89.9332Z" fill="#5599BF"/>
</g>
<defs>
<filter id="filter0_d_774_676" x="-0.00732422" y="3.5" width="116.015" height="117" filterUnits="userSpaceOnUse" color-interpolation-filters="sRGB">
<feFlood flood-opacity="0" result="BackgroundImageFix"/>
<feColorMatrix in="SourceAlpha" type="matrix" values="0 0 0 0 0 0 0 0 0 0 0 0 0 0 0 0 0 0 127 0" result="hardAlpha"/>
<feOffset dy="4"/>
<feGaussianBlur stdDeviation="2"/>
<feComposite in2="hardAlpha" operator="out"/>
<feColorMatrix type="matrix" values="0 0 0 0 0 0 0 0 0 0 0 0 0 0 0 0 0 0 0.25 0"/>
<feBlend mode="normal" in2="BackgroundImageFix" result="effect1_dropShadow_774_676"/>
<feBlend mode="normal" in="SourceGraphic" in2="effect1_dropShadow_774_676" result="shape"/>
</filter>
</defs>
</svg>
