<svg width="63" height="64" viewBox="0 0 63 64" fill="none" xmlns="http://www.w3.org/2000/svg">
<rect x="0.5" y="0.5" width="61.5157" height="62.8458" stroke="black"/>
<rect width="62.5157" height="63.8458" rx="17.2916" fill="black"/>
<rect x="0.5" y="0.5" width="61.5157" height="62.8458" rx="16.7916" stroke="black" stroke-opacity="0.25"/>
<path d="M22.9803 21.637V19.9227C22.9803 17.6495 23.8833 15.4693 25.4908 13.8618C27.0982 12.2544 29.2784 11.3513 31.5517 11.3513C33.825 11.3513 36.0052 12.2544 37.6126 13.8618C39.2201 15.4693 40.1231 17.6495 40.1231 19.9227V21.637M46.9803 21.637H16.1231C14.3045 21.637 12.5604 22.3595 11.2744 23.6454C9.98844 24.9314 9.26599 26.6755 9.26599 28.4942V47.3513C9.26599 49.1699 9.98844 50.9141 11.2744 52.2C12.5604 53.486 14.3045 54.2085 16.1231 54.2085H46.9803C48.7989 54.2085 50.543 53.486 51.829 52.2C53.115 50.9141 53.8374 49.1699 53.8374 47.3513V28.4942C53.8374 26.6755 53.115 24.9314 51.829 23.6454C50.543 22.3595 48.7989 21.637 46.9803 21.637Z" stroke="white" stroke-linecap="round" stroke-linejoin="round"/>
<path d="M26.4088 33.6368C26.4088 32.6196 26.7104 31.6253 27.2755 30.7795C27.8406 29.9338 28.6439 29.2746 29.5836 28.8854C30.5233 28.4961 31.5574 28.3943 32.555 28.5927C33.5526 28.7912 34.469 29.281 35.1882 30.0002C35.9075 30.7194 36.3973 31.6358 36.5957 32.6334C36.7941 33.6311 36.6923 34.6651 36.3031 35.6048C35.9138 36.5446 35.2546 37.3478 34.4089 37.9129C33.5632 38.478 32.5688 38.7796 31.5517 38.7796V40.4939M31.5585 47.351C31.3312 47.351 31.1132 47.2607 30.9524 47.1C30.7917 46.9392 30.7014 46.7212 30.7014 46.4939C30.7014 46.2666 30.7917 46.0486 30.9524 45.8878C31.1132 45.7271 31.3312 45.6368 31.5585 45.6368C31.7859 45.6368 32.0039 45.7271 32.1646 45.8878C32.3254 46.0486 32.4157 46.2666 32.4157 46.4939C32.4157 46.7212 32.3254 46.9392 32.1646 47.1C32.0039 47.2607 31.7859 47.351 31.5585 47.351Z" stroke="white" stroke-linecap="round" stroke-linejoin="round"/>
</svg>
