<svg width="63" height="64" viewBox="0 0 63 64" fill="none" xmlns="http://www.w3.org/2000/svg">
<rect width="62.5157" height="63.8458" rx="17.2916" fill="black"/>
<path d="M21.947 34.7507C21.5524 34.7507 21.1666 34.8677 20.8385 35.087C20.5104 35.3062 20.2547 35.6178 20.1037 35.9824C19.9526 36.347 19.9131 36.7481 19.9901 37.1352C20.0671 37.5222 20.2571 37.8777 20.5362 38.1567C20.8152 38.4358 21.1707 38.6258 21.5577 38.7028C21.9448 38.7798 22.3459 38.7402 22.7105 38.5892C23.0751 38.4382 23.3867 38.1825 23.6059 37.8544C23.8251 37.5263 23.9421 37.1405 23.9421 36.7459C23.9421 36.2168 23.7319 35.7093 23.3578 35.3351C22.9836 34.9609 22.4761 34.7507 21.947 34.7507ZM21.947 37.7435C21.7497 37.7435 21.5568 37.685 21.3927 37.5754C21.2287 37.4658 21.1008 37.31 21.0253 37.1277C20.9498 36.9454 20.9301 36.7448 20.9685 36.5513C21.007 36.3578 21.102 36.18 21.2416 36.0405C21.3811 35.901 21.5588 35.806 21.7523 35.7675C21.9459 35.729 22.1464 35.7488 22.3287 35.8243C22.511 35.8998 22.6668 36.0276 22.7764 36.1917C22.8861 36.3557 22.9446 36.5486 22.9446 36.7459C22.9446 37.0105 22.8395 37.2642 22.6524 37.4513C22.4653 37.6384 22.2115 37.7435 21.947 37.7435Z" fill="white"/>
<path d="M41.8987 34.7507C41.5041 34.7507 41.1184 34.8677 40.7903 35.087C40.4622 35.3062 40.2064 35.6178 40.0554 35.9824C39.9044 36.347 39.8649 36.7481 39.9419 37.1352C40.0189 37.5222 40.2089 37.8777 40.4879 38.1567C40.767 38.4358 41.1225 38.6258 41.5095 38.7028C41.8965 38.7798 42.2977 38.7402 42.6623 38.5892C43.0268 38.4382 43.3384 38.1825 43.5577 37.8544C43.7769 37.5263 43.8939 37.1405 43.8939 36.7459C43.8939 36.2168 43.6837 35.7093 43.3095 35.3351C42.9354 34.9609 42.4279 34.7507 41.8987 34.7507ZM41.8987 37.7435C41.7014 37.7435 41.5086 37.685 41.3445 37.5754C41.1805 37.4658 41.0526 37.31 40.9771 37.1277C40.9016 36.9454 40.8818 36.7448 40.9203 36.5513C40.9588 36.3578 41.0538 36.18 41.1933 36.0405C41.3329 35.901 41.5106 35.806 41.7041 35.7675C41.8976 35.729 42.0982 35.7488 42.2805 35.8243C42.4628 35.8998 42.6186 36.0276 42.7282 36.1917C42.8378 36.3557 42.8963 36.5486 42.8963 36.7459C42.8963 37.0105 42.7912 37.2642 42.6041 37.4513C42.4171 37.6384 42.1633 37.7435 41.8987 37.7435Z" fill="white"/>
<path d="M27.4336 37.2434H36.4119V38.241H27.4336V37.2434Z" fill="white"/>
<path d="M27.4336 35.2495H36.4119V36.2471H27.4336V35.2495Z" fill="white"/>
<path d="M30.4265 27.7668H33.4193V28.7644H30.4265V27.7668Z" fill="white"/>
<path d="M46.8867 32.2562V31.2586C46.8855 30.8621 46.7275 30.4822 46.4471 30.2018C46.1668 29.9215 45.7868 29.7634 45.3903 29.7623H43.4151L42.3826 26.141L42.0733 24.909C41.9922 24.5855 41.8053 24.2984 41.5423 24.0932C41.2793 23.8881 40.9554 23.7767 40.6218 23.7767H36.412V21.7815C36.4112 21.5172 36.3059 21.2639 36.119 21.077C35.932 20.8901 35.6788 20.7847 35.4144 20.7839H28.4313C28.1669 20.7847 27.9137 20.8901 27.7268 21.077C27.5398 21.2639 27.4345 21.5172 27.4337 21.7815V23.7767H23.2239C22.8903 23.7767 22.5664 23.8881 22.3034 24.0932C22.0404 24.2984 21.8535 24.5855 21.7724 24.909L21.4681 26.136L20.4306 29.7623H18.4554C18.0589 29.7634 17.6789 29.9215 17.3986 30.2018C17.1182 30.4822 16.9602 30.8621 16.959 31.2586V32.2562C16.9598 32.5089 17.0247 32.7573 17.1478 32.978C17.2708 33.1987 17.4478 33.3846 17.6623 33.5182C17.2114 33.9815 16.959 34.6025 16.959 35.249V41.2346C16.9597 41.4438 17.0044 41.6506 17.0904 41.8414C17.1763 42.0322 17.3015 42.2027 17.4578 42.3419V44.2273C17.459 44.6238 17.617 45.0038 17.8974 45.2841C18.1777 45.5645 18.5577 45.7225 18.9542 45.7237H22.9445C23.341 45.7225 23.721 45.5645 24.0013 45.2841C24.2817 45.0038 24.4397 44.6238 24.4409 44.2273V42.7309H39.4048V44.2273C39.406 44.6238 39.564 45.0038 39.8444 45.2841C40.1247 45.5645 40.5047 45.7225 40.9012 45.7237H44.8915C45.288 45.7225 45.668 45.5645 45.9483 45.2841C46.2287 45.0038 46.3867 44.6238 46.3879 44.2273V42.3419C46.5442 42.2027 46.6694 42.0322 46.7553 41.8414C46.8413 41.6506 46.886 41.4438 46.8867 41.2346V35.249C46.8867 34.6025 46.6343 33.9815 46.1834 33.5182C46.3979 33.3846 46.5749 33.1987 46.698 32.978C46.821 32.7573 46.8859 32.5089 46.8867 32.2562ZM28.4313 21.7815H35.4144V23.7767H28.4313V21.7815ZM22.74 25.1534C22.7668 25.0452 22.8289 24.9492 22.9166 24.8805C23.0043 24.8118 23.1125 24.7744 23.2239 24.7743H40.6218C40.7332 24.7744 40.8414 24.8118 40.9291 24.8805C41.0168 24.9492 41.0789 25.0452 41.1057 25.1534L41.2603 25.7719H22.5854L22.74 25.1534ZM22.321 26.7695H41.5247L43.2305 32.755H28.8852C28.768 32.058 28.4075 31.425 27.8678 30.9685C27.3281 30.512 26.6442 30.2615 25.9373 30.2615C25.2305 30.2615 24.5465 30.512 24.0068 30.9685C23.4671 31.425 23.1067 32.058 22.9894 32.755H20.6152L22.321 26.7695ZM27.8627 32.755H24.012C24.1209 32.327 24.3693 31.9475 24.7179 31.6765C25.0666 31.4054 25.4957 31.2582 25.9373 31.2582C26.3789 31.2582 26.808 31.4054 27.1567 31.6765C27.5053 31.9475 27.7538 32.327 27.8627 32.755ZM17.9566 31.2586C17.9566 31.1264 18.0091 30.9995 18.1027 30.9059C18.1962 30.8124 18.3231 30.7598 18.4554 30.7598H20.1463L19.5777 32.755H18.4554C18.3231 32.755 18.1962 32.7025 18.1027 32.6089C18.0091 32.5154 17.9566 32.3885 17.9566 32.2562V31.2586ZM23.4433 44.2273C23.4433 44.3596 23.3908 44.4865 23.2972 44.58C23.2037 44.6736 23.0768 44.7261 22.9445 44.7261H18.9542C18.8219 44.7261 18.695 44.6736 18.6015 44.58C18.5079 44.4865 18.4554 44.3596 18.4554 44.2273V42.7309H23.4433V44.2273ZM45.3903 44.2273C45.3903 44.3596 45.3378 44.4865 45.2442 44.58C45.1507 44.6736 45.0238 44.7261 44.8915 44.7261H40.9012C40.7689 44.7261 40.642 44.6736 40.5485 44.58C40.4549 44.4865 40.4024 44.3596 40.4024 44.2273V42.7309H45.3903V44.2273ZM45.8891 41.2346C45.8891 41.3668 45.8366 41.4937 45.743 41.5873C45.6495 41.6808 45.5226 41.7333 45.3903 41.7333H18.4554C18.3231 41.7333 18.1962 41.6808 18.1027 41.5873C18.0091 41.4937 17.9566 41.3668 17.9566 41.2346V40.7358H45.8891V41.2346ZM45.8891 39.7382H17.9566V35.249C17.9578 34.8525 18.1158 34.4726 18.3962 34.1922C18.6765 33.9118 19.0565 33.7538 19.453 33.7526H44.3927C44.7892 33.7538 45.1692 33.9118 45.4495 34.1922C45.7299 34.4726 45.8879 34.8525 45.8891 35.249V39.7382ZM45.8891 32.2562C45.8891 32.3885 45.8366 32.5154 45.743 32.6089C45.6495 32.7025 45.5226 32.755 45.3903 32.755H44.268L43.6994 30.7598H45.3903C45.5226 30.7598 45.6495 30.8124 45.743 30.9059C45.8366 30.9995 45.8891 31.1264 45.8891 31.2586V32.2562Z" fill="white"/>
</svg>
