<svg width="63" height="64" viewBox="0 0 63 64" fill="none" xmlns="http://www.w3.org/2000/svg">
<rect width="62.5157" height="63.8458" rx="17.2916" fill="black"/>
<path d="M22.6 7.92285C22.2817 7.92285 21.9765 8.08089 21.7514 8.36219C21.5264 8.6435 21.4 9.02503 21.4 9.42285C21.4 9.82068 21.5264 10.2022 21.7514 10.4835C21.9765 10.7648 22.2817 10.9229 22.6 10.9229H23.8V13.9229H22.6C21.0087 13.9229 19.4826 14.713 18.3573 16.1196C17.2321 17.5261 16.6 19.4337 16.6 21.4229V45.4229C16.5997 47.1518 17.0773 48.8278 17.952 50.1672C18.8267 51.5066 20.0447 52.4271 21.4 52.7729V54.4229C21.4 54.8207 21.5264 55.2022 21.7514 55.4835C21.9765 55.7648 22.2817 55.9229 22.6 55.9229C22.9182 55.9229 23.2235 55.7648 23.4485 55.4835C23.6735 55.2022 23.8 54.8207 23.8 54.4229V52.9229H38.2V54.4229C38.2 54.8207 38.3264 55.2022 38.5514 55.4835C38.7765 55.7648 39.0817 55.9229 39.4 55.9229C39.7182 55.9229 40.0235 55.7648 40.2485 55.4835C40.4735 55.2022 40.6 54.8207 40.6 54.4229V52.7729C41.9552 52.4271 43.1732 51.5066 44.0479 50.1672C44.9226 48.8278 45.4003 47.1518 45.4 45.4229V21.4229C45.4 19.4337 44.7678 17.5261 43.6426 16.1196C42.5174 14.713 40.9913 13.9229 39.4 13.9229H38.2V10.9229H39.4C39.7182 10.9229 40.0235 10.7648 40.2485 10.4835C40.4735 10.2022 40.6 9.82068 40.6 9.42285C40.6 9.02503 40.4735 8.6435 40.2485 8.36219C40.0235 8.08089 39.7182 7.92285 39.4 7.92285H22.6ZM35.8 10.9229V13.9229H26.2V10.9229H35.8ZM22.6 16.9229H39.4C40.3548 16.9229 41.2704 17.397 41.9456 18.2409C42.6207 19.0848 43 20.2294 43 21.4229V45.4229C43 46.6163 42.6207 47.7609 41.9456 48.6048C41.2704 49.4487 40.3548 49.9229 39.4 49.9229H22.6C21.6452 49.9229 20.7295 49.4487 20.0544 48.6048C19.3793 47.7609 19 46.6163 19 45.4229V21.4229C19 20.2294 19.3793 19.0848 20.0544 18.2409C20.7295 17.397 21.6452 16.9229 22.6 16.9229ZM22.6 27.4229C22.6 27.025 22.7264 26.6435 22.9514 26.3622C23.1765 26.0809 23.4817 25.9229 23.8 25.9229H38.2C38.5182 25.9229 38.8235 26.0809 39.0485 26.3622C39.2735 26.6435 39.4 27.025 39.4 27.4229C39.4 27.8207 39.2735 28.2022 39.0485 28.4835C38.8235 28.7648 38.5182 28.9229 38.2 28.9229H23.8C23.4817 28.9229 23.1765 28.7648 22.9514 28.4835C22.7264 28.2022 22.6 27.8207 22.6 27.4229Z" fill="#F8F8F8"/>
</svg>
