<svg width="63" height="64" viewBox="0 0 63 64" fill="none" xmlns="http://www.w3.org/2000/svg">
<rect width="62.5157" height="63.8458" rx="17.2916" fill="black"/>
<path d="M35.5 27.5L26.5 36.5M35.5 36.5L26.5 27.5M16.75 32C16.75 25.283 16.75 21.923 18.8365 19.8365C20.923 17.75 24.2815 17.75 31 17.75C37.717 17.75 41.077 17.75 43.1635 19.8365C45.25 21.923 45.25 25.2815 45.25 32C45.25 38.717 45.25 42.077 43.1635 44.1635C41.077 46.25 37.7185 46.25 31 46.25C24.283 46.25 20.923 46.25 18.8365 44.1635C16.75 42.077 16.75 38.7185 16.75 32Z" stroke="#F8F8F8" stroke-width="1.5" stroke-linecap="round" stroke-linejoin="round"/>
</svg>
