<svg width="63" height="64" viewBox="0 0 63 64" fill="none" xmlns="http://www.w3.org/2000/svg">
<rect width="62.5157" height="63.8458" rx="17.2916" fill="black"/>
<path d="M44.4168 26.2493V22.416C44.4168 19.2535 41.8293 16.666 38.6668 16.666H23.3335C20.171 16.666 17.5835 19.2535 17.5835 22.416V26.2493C14.421 26.2493 11.8335 28.8368 11.8335 31.9993V41.5827C11.8335 44.7452 14.421 47.3327 17.5835 47.3327V51.166H21.4168V47.3327H40.5835V51.166H44.4168V47.3327C47.5793 47.3327 50.1668 44.7452 50.1668 41.5827V31.9993C50.1668 28.8368 47.5793 26.2493 44.4168 26.2493ZM21.4168 22.416C21.4168 21.3618 22.2793 20.4993 23.3335 20.4993H38.6668C39.721 20.4993 40.5835 21.3618 40.5835 22.416V27.7443C39.4143 28.7985 38.6668 30.3127 38.6668 31.9993V35.8327H23.3335V31.9993C23.3335 30.3127 22.586 28.7985 21.4168 27.7443V22.416ZM46.3335 41.5827C46.3335 42.6368 45.471 43.4993 44.4168 43.4993H17.5835C16.5293 43.4993 15.6668 42.6368 15.6668 41.5827V31.9993C15.6668 30.9452 16.5293 30.0827 17.5835 30.0827C18.6377 30.0827 19.5002 30.9452 19.5002 31.9993V39.666H42.5002V31.9993C42.5002 30.9452 43.3627 30.0827 44.4168 30.0827C45.471 30.0827 46.3335 30.9452 46.3335 31.9993V41.5827Z" fill="#F8F8F8"/>
</svg>
