<svg width="63" height="64" viewBox="0 0 63 64" fill="none" xmlns="http://www.w3.org/2000/svg">
<rect width="62.5157" height="63.8458" rx="17.2916" fill="black"/>
<path d="M17.9376 22.7356C17.9376 21.7079 18.3459 20.7222 19.0726 19.9955C19.7993 19.2689 20.7849 18.8606 21.8126 18.8606" stroke="white" stroke-width="1.9375" stroke-linecap="round" stroke-linejoin="round"/>
<path d="M45.0624 22.7356C45.0624 21.7079 44.6541 20.7222 43.9274 19.9955C43.2007 19.2689 42.2151 18.8606 41.1874 18.8606" stroke="white" stroke-width="1.9375" stroke-linecap="round" stroke-linejoin="round"/>
<path d="M45.0624 42.1106C45.0624 43.1383 44.6541 44.1239 43.9274 44.8506C43.2007 45.5773 42.2151 45.9856 41.1874 45.9856" stroke="white" stroke-width="1.9375" stroke-linecap="round" stroke-linejoin="round"/>
<path d="M17.9376 42.1106C17.9376 43.1383 18.3459 44.1239 19.0726 44.8506C19.7993 45.5773 20.7849 45.9856 21.8126 45.9856" stroke="white" stroke-width="1.9375" stroke-linecap="round" stroke-linejoin="round"/>
<path d="M45.0624 34.3606V38.2356" stroke="white" stroke-width="1.9375" stroke-linecap="round" stroke-linejoin="round"/>
<path d="M45.0624 26.6106V30.4856" stroke="white" stroke-width="1.9375" stroke-linecap="round" stroke-linejoin="round"/>
<path d="M17.9376 34.3606V38.2356" stroke="white" stroke-width="1.9375" stroke-linecap="round" stroke-linejoin="round"/>
<path d="M17.9376 26.6106V30.4856" stroke="white" stroke-width="1.9375" stroke-linecap="round" stroke-linejoin="round"/>
<path d="M29.5625 18.8606H25.6875" stroke="white" stroke-width="1.9375" stroke-linecap="round" stroke-linejoin="round"/>
<path d="M37.3125 18.8606H33.4375" stroke="white" stroke-width="1.9375" stroke-linecap="round" stroke-linejoin="round"/>
<path d="M29.5625 45.9856H25.6875" stroke="white" stroke-width="1.9375" stroke-linecap="round" stroke-linejoin="round"/>
<path d="M37.3125 45.9856H33.4375" stroke="white" stroke-width="1.9375" stroke-linecap="round" stroke-linejoin="round"/>
<path d="M27.625 32.4231H35.3749" stroke="white" stroke-width="1.9375" stroke-linecap="round" stroke-linejoin="round"/>
<path d="M31.5 28.5481V36.298" stroke="white" stroke-width="1.9375" stroke-linecap="round" stroke-linejoin="round"/>
</svg>
