<svg width="63" height="64" viewBox="0 0 63 64" fill="none" xmlns="http://www.w3.org/2000/svg">
<rect width="62.5157" height="63.8458" rx="17.2916" fill="black"/>
<path d="M18.016 23.2444C17.6216 23.2444 17.2988 22.9217 17.2916 22.5272V18.0159C17.2916 17.6143 17.6144 17.2915 18.016 17.2915H22.5274C22.9218 17.2915 23.2446 17.6143 23.2446 18.0159V19.5866H40.6014V18.0159C40.6014 17.6214 40.9241 17.2987 41.3186 17.2915H45.8299C46.2244 17.2915 46.5471 17.6143 46.5543 18.0159V22.5272C46.5543 22.9217 46.2316 23.2444 45.8299 23.2444H44.2592V40.6012H45.8299C46.2244 40.6012 46.5471 40.924 46.5543 41.3185V45.8298C46.5543 46.2243 46.2316 46.547 45.8299 46.5542H41.3186C40.9241 46.5542 40.6014 46.2314 40.6014 45.8298V44.2591H23.2446V45.8298C23.2446 46.2243 22.9218 46.547 22.5274 46.5542H18.016C17.6216 46.5542 17.2988 46.2314 17.2916 45.8298V41.3185C17.2916 40.924 17.6144 40.6012 18.016 40.6012H19.5868V23.2444H18.016ZM45.1199 21.81V18.7259H42.0358V21.81H45.1199ZM42.0358 45.1197H45.1199V42.0357H42.0358V45.1197ZM23.2446 41.3185V42.8246H40.6014V41.3185C40.6014 40.924 40.9241 40.6012 41.3186 40.6012H42.8248V23.2444H41.3186C40.9241 23.2444 40.6014 22.9217 40.6014 22.5272V21.0211H23.2446V22.5272C23.2446 22.9217 22.9218 23.2444 22.5274 23.2444H21.0212V40.6012H22.5274C22.9218 40.6012 23.2446 40.924 23.2446 41.3185ZM18.7261 42.0357V45.1197H21.8101V42.0357H18.7261ZM21.8101 21.81V18.7259H18.7261V21.81H21.8101Z" fill="white"/>
</svg>
