<svg width="63" height="64" viewBox="0 0 63 64" fill="none" xmlns="http://www.w3.org/2000/svg">
<rect width="62.5157" height="63.8458" rx="17.2916" fill="black"/>
<path d="M41.448 21.7397C40.6652 20.9566 40.2068 19.9067 40.1645 18.8002C40.1223 17.6937 40.4994 16.612 41.2203 15.7714C41.2799 15.7015 41.3109 15.6117 41.3071 15.5199C41.3033 15.4281 41.2649 15.3411 41.1996 15.2764L37.0466 11.1188C36.978 11.0501 36.8849 11.0116 36.7878 11.0116C36.6908 11.0116 36.5977 11.0501 36.5291 11.1188L29.9095 17.7383C29.6653 17.9824 29.4813 18.2801 29.3722 18.6078C29.2635 18.9362 29.0797 19.2348 28.8355 19.4798C28.5913 19.7249 28.2933 19.9096 27.9653 20.0194C27.6374 20.1287 27.3394 20.3126 27.0948 20.5568L10.1188 37.5291C10.0501 37.5977 10.0116 37.6908 10.0116 37.7878C10.0116 37.8849 10.0501 37.978 10.1188 38.0466L14.2717 42.1996C14.3364 42.2649 14.4234 42.3033 14.5152 42.3071C14.607 42.3109 14.6968 42.2799 14.7667 42.2203C15.6071 41.4986 16.689 41.1209 17.7959 41.1629C18.9029 41.2049 19.9531 41.6634 20.7364 42.4467C21.5197 43.23 21.9782 44.2802 22.0202 45.3871C22.0621 46.494 21.6845 47.576 20.9628 48.4163C20.9031 48.4862 20.8721 48.5761 20.876 48.6679C20.8798 48.7597 20.9182 48.8467 20.9835 48.9113L25.1364 53.0643C25.2051 53.1329 25.2981 53.1715 25.3952 53.1715C25.4923 53.1715 25.5854 53.1329 25.654 53.0643L42.631 36.0883C42.8751 35.8437 43.0591 35.5457 43.1683 35.2178C43.2771 34.8894 43.4608 34.5908 43.705 34.3458C43.9492 34.1007 44.2472 33.916 44.5752 33.8062C44.9029 33.6971 45.2007 33.5131 45.4448 33.2688L52.0643 26.6493C52.1329 26.5807 52.1715 26.4876 52.1715 26.3905C52.1715 26.2934 52.1329 26.2004 52.0643 26.1317L47.9113 21.9787C47.8467 21.9135 47.7597 21.8751 47.6679 21.8713C47.5761 21.8674 47.4862 21.8984 47.4163 21.958C46.577 22.6802 45.4959 23.0589 44.3894 23.0184C43.2829 22.9779 42.2324 22.5213 41.448 21.7397Z" stroke="#F8F8F8" stroke-width="3.01144" stroke-miterlimit="10"/>
<path d="M30.574 21.2167L29.0203 19.663M34.7166 25.3593L33.6805 24.3241M38.8592 29.5028L37.824 28.4667M43.5203 34.163L41.9666 32.6093" stroke="#F8F8F8" stroke-width="3.01144" stroke-miterlimit="10" stroke-linecap="round"/>
</svg>
